<svg id="about-section2-icon1" xmlns="http://www.w3.org/2000/svg" xmlns:xlink="http://www.w3.org/1999/xlink" width="19.426" height="48.041" viewBox="0 0 19.426 48.041">
  <defs>
    <clipPath id="clip-path">
      <rect id="Rectangle_117" data-name="Rectangle 117" width="19.426" height="48.041" fill="none"/>
    </clipPath>
  </defs>
  <g id="Group_237" data-name="Group 237" clip-path="url(#clip-path)">
    <path id="Path_492" data-name="Path 492" d="M96.385,4.8s.425.9,1.005,2.216c2.508-2.13,8.859-4.031,9.3-4.162.328-1.693.577-2.856.577-2.856S99.417,2.265,96.385,4.8" transform="translate(-89.88 0.001)" fill="#f7b01d"/>
    <path id="Path_493" data-name="Path 493" d="M82.345,22.467s.5,1.05,1.176,2.591c2.932-2.49,10.359-4.713,10.875-4.866.384-1.979.674-3.339.674-3.339s-9.18,2.65-12.725,5.615" transform="translate(-76.787 -15.715)" fill="#e29925"/>
    <path id="Path_494" data-name="Path 494" d="M187.785,345.823a.344.344,0,0,0-.249-.113l-3.335-.042-.008.749,2.958.037a6.21,6.21,0,0,1-1.731,3.84,9.088,9.088,0,0,1-2.81,1.923l.194.72a9.4,9.4,0,0,0,3.074-2.073,7.168,7.168,0,0,0,2.007-4.775.387.387,0,0,0-.1-.267" transform="translate(-170.285 -322.338)" fill="#e29925"/>
    <path id="Path_495" data-name="Path 495" d="M71.036,63.117s1.377,4.419,2.375,8.747a47.011,47.011,0,0,1,.908,4.9c.125,1.082.239,2.291.342,3.521.115,1.367.215,2.759.3,4.028.073,1.1.132,2.1.179,2.915.071,1.267.109,2.08.109,2.08a2.2,2.2,0,0,0,2.069,1.1,2.733,2.733,0,0,0,2.284-1.19s.214-7.417.928-12.636,5.138-17.762,5.138-17.762-10.35,1.556-14.632,4.3" transform="translate(-66.242 -54.844)" fill="#e29925"/>
    <path id="Path_496" data-name="Path 496" d="M62.66,63.117s1.377,4.419,2.375,8.747a47.009,47.009,0,0,1,.908,4.9c.125,1.082.239,2.291.342,3.521.115,1.367.215,2.759.3,4.028.073,1.1.132,2.1.179,2.915.071,1.267.109,2.08.109,2.08a2.2,2.2,0,0,0,2.069,1.1,2.733,2.733,0,0,0,2.284-1.19s.214-7.417.928-12.636,5.138-17.762,5.138-17.762-10.35,1.556-14.632,4.3" transform="translate(-58.431 -54.844)" fill="#f7b01d"/>
    <path id="Path_497" data-name="Path 497" d="M9.675,272.92a12.752,12.752,0,0,0-3.368-7.1l.971-1.912-2.056.584-.332.095-1.543-1.934-.415,2.556L0,266.487l2.079.993.089,2.338,1.419-1.741a11.135,11.135,0,0,1,3.748,3.617,5.734,5.734,0,0,1,.734,2.057,5.6,5.6,0,0,1,.014,1.433c.2.951.37,1.823.509,2.531a6.585,6.585,0,0,0,1.083-4.794" transform="translate(0 -244.924)" fill="#fbae1e"/>
    <path id="Path_498" data-name="Path 498" d="M191.334,89.313c-.4,1.632-1.01,4.354-1.517,7.805a69.145,69.145,0,0,0-.752,10.33s.38-2.491,1.452-7.569a63.774,63.774,0,0,1,2.946-9.421,23.617,23.617,0,0,0-2.128-1.145" transform="translate(-176.302 -83.285)" fill="#fcbc55"/>
    <rect id="Rectangle_114" data-name="Rectangle 114" width="12.891" height="4.595" transform="translate(4.208 43.446)" fill="#0e1018"/>
    <path id="Path_499" data-name="Path 499" d="M74.239,613.32h-10.9l-.995,2.052H75.234Z" transform="translate(-58.136 -571.926)" fill="#0e111b"/>
    <rect id="Rectangle_115" data-name="Rectangle 115" width="8.621" height="2.454" transform="translate(6.339 44.476)" fill="#fff"/>
    <rect id="Rectangle_116" data-name="Rectangle 116" width="8.502" height="2.263" transform="translate(6.398 44.571)" fill="#fbae1e"/>
    <path id="Path_500" data-name="Path 500" d="M75.238,613.32H69.8l-.527,1.087,4.843.519,3.919-.577Z" transform="translate(-64.602 -571.926)" fill="#101426"/>
    <path id="Path_501" data-name="Path 501" d="M90.131,542.194s0-.481-.686-.55a2.983,2.983,0,0,1-1.887-1.61,7.166,7.166,0,0,1-.257-2.88l-1.029-.145-1.029.145a7.166,7.166,0,0,1-.257,2.88,2.983,2.983,0,0,1-1.887,1.61c-.684.069-.686.55-.686.55s-.978-.222-1.441,1.274h10.6c-.463-1.5-1.441-1.274-1.441-1.274" transform="translate(-75.507 -500.766)" fill="#f9a11b"/>
    <path id="Path_502" data-name="Path 502" d="M130.781,520.278h-3.653a.444.444,0,0,0,0,.886h3.653a.444.444,0,0,0,0-.886" transform="translate(-118.164 -485.163)" fill="#fbb331"/>
    <path id="Path_503" data-name="Path 503" d="M134.059,530.044h-3.242a.394.394,0,0,0,0,.786h3.242a.394.394,0,0,0,0-.786" transform="translate(-121.648 -494.27)" fill="#fbb331"/>
    <path id="Path_504" data-name="Path 504" d="M137.853,530.722h-3.18a.017.017,0,0,0-.017.017v0a.017.017,0,0,0,.017.017h3.18a.017.017,0,0,0,.017-.017v0a.017.017,0,0,0-.017-.017" transform="translate(-125.568 -494.903)" fill="#fdcc85"/>
    <path id="Path_505" data-name="Path 505" d="M137.853,520.278h-3.18a.017.017,0,0,0-.017.017v0a.017.017,0,0,0,.017.017h3.18a.017.017,0,0,0,.017-.017v0a.017.017,0,0,0-.017-.017" transform="translate(-125.568 -485.163)" fill="#fdcc85"/>
    <path id="Path_506" data-name="Path 506" d="M109.841,611.356h-7.4a.161.161,0,0,0-.161.161v.012a.161.161,0,0,0,.161.161h7.4a.161.161,0,0,0,.161-.161v-.012a.161.161,0,0,0-.161-.161" transform="translate(-95.378 -570.095)" fill="#fbb331"/>
    <path id="Path_507" data-name="Path 507" d="M94.483,622.446h-9.8a.16.16,0,0,0-.161.161v.012a.16.16,0,0,0,.161.161h9.8a.16.16,0,0,0,.16-.161v-.012a.16.16,0,0,0-.16-.161" transform="translate(-78.822 -580.436)" fill="#fbb331"/>
    <path id="Path_508" data-name="Path 508" d="M82.138,418.034c-.585-1.129.146-3.206.146-3.206l.91.193-.541-.824.468-.927-1.314.392-.766-.756-.055,1.1-.982.444.8.378a5.533,5.533,0,0,0,.583,3.379,2.536,2.536,0,0,0,2.97,1.392c.089-.056.215-.2.206-.266a2.441,2.441,0,0,1-2.425-1.3" transform="translate(-74.604 -385.038)" fill="#fbae1e"/>
    <path id="Path_509" data-name="Path 509" d="M244.9,466.412l-.355-1.031-.38,1.017-.678.377.665.4.355,1.307.38-1.293.678-.377Z" transform="translate(-227.053 -433.971)" fill="#fff"/>
    <path id="Path_510" data-name="Path 510" d="M112.888,356.122c-.242-1.648-.531-2.948-.724-3.728a11.282,11.282,0,0,0-1.016.547,30.462,30.462,0,0,1,1.407,4.5c.512,2.425.693,3.615.693,3.615a33.017,33.017,0,0,0-.359-4.933" transform="translate(-103.645 -328.61)" fill="#fcbc55"/>
  </g>
</svg>
