<svg xmlns="http://www.w3.org/2000/svg" width="18.091" height="15.83" viewBox="0 0 18.091 15.83">
  <path id="bullet-icon" d="M17.27,6.117V3.856H5.963V6.117H2.571V8.379a3.394,3.394,0,0,0,4.41,3.237,5.656,5.656,0,0,0,3.5,2.3v3.505H9.355a2.261,2.261,0,0,0-2.261,2.261h9.046a2.261,2.261,0,0,0-2.261-2.261H12.747V13.919a5.656,5.656,0,0,0,3.5-2.3,3.394,3.394,0,0,0,4.41-3.237V6.117ZM5.963,10.428A2.052,2.052,0,0,1,3.913,8.379V7.248H5.963V8.379a5.64,5.64,0,0,0,.37,2.015,2.052,2.052,0,0,1-.37.034ZM19.319,8.379a2.047,2.047,0,0,1-2.42,2.015,5.64,5.64,0,0,0,.37-2.015V7.248h2.049Z" transform="translate(-2.571 -3.856)" fill="#fff"/>
</svg>
