<svg xmlns="http://www.w3.org/2000/svg" xmlns:xlink="http://www.w3.org/1999/xlink" width="509" height="428" viewBox="0 0 509 428">
  <defs>
    <clipPath id="clip-path">
      <rect id="cyber-security-left-img" width="509" height="428" transform="translate(1688 911)" fill="#fff"/>
    </clipPath>
    <clipPath id="clip-path-2">
      <rect id="Rectangle_3" data-name="Rectangle 3" width="502.356" height="309.092" fill="none"/>
    </clipPath>
    <clipPath id="clip-path-3">
      <path id="Path_23" data-name="Path 23" d="M16.874,567.183c-4.727,13.093-4.332,15.7-11.28,21.054l12.774,6.685c6.947-5.35,7.049-7.759,11.28-21.054,3.319-10.43,14.228-9.388,14.228-9.388s-8.158-4.129-12.909-2.734a3.725,3.725,0,0,1,.135-3.95,9.183,9.183,0,0,0-3.051-.484c-3.2,0-8.159,1.51-11.177,9.871" transform="translate(-5.594 -557.312)" fill="none"/>
    </clipPath>
    <linearGradient id="linear-gradient" x1="0.063" y1="2.465" x2="0.07" y2="2.465" gradientUnits="objectBoundingBox">
      <stop offset="0" stop-color="#f43334"/>
      <stop offset="1" stop-color="#ca3f3f"/>
    </linearGradient>
    <clipPath id="clip-path-5">
      <rect id="Rectangle_8" data-name="Rectangle 8" width="81.979" height="101.319" fill="none"/>
    </clipPath>
    <linearGradient id="linear-gradient-2" x1="-1.469" y1="0.897" x2="-1.466" y2="0.897" xlink:href="#linear-gradient"/>
    <clipPath id="clip-path-6">
      <rect id="Rectangle_10" data-name="Rectangle 10" width="75.8" height="75.802" fill="none"/>
    </clipPath>
    <linearGradient id="linear-gradient-3" x1="-0.837" y1="0.884" x2="-0.834" y2="0.884" gradientUnits="objectBoundingBox">
      <stop offset="0" stop-color="#e6b67a"/>
      <stop offset="1" stop-color="#f5ddbc"/>
    </linearGradient>
    <linearGradient id="linear-gradient-4" x1="-3.286" y1="0.884" x2="-3.282" y2="0.884" xlink:href="#linear-gradient-3"/>
    <clipPath id="clip-path-9">
      <path id="Path_78" data-name="Path 78" d="M1148.63,313.046a3.307,3.307,0,0,0-.286-.27c-1.094-.9.641-2.712.641-2.712s-2.83,1.189-2.354,2.807.949,1.472-.553,3.184-.026,4.325,2.74,3.725a.978.978,0,0,1,.616.13c.244.115.449.23.579.045.948.721,2.01.4,3.1-.051a2.6,2.6,0,0,0,2.42-.181c2.951-1.641,1.642-4.261.437-5.574s.438-3.229.438-3.229a9.366,9.366,0,0,0-3.048,1.607,6.585,6.585,0,0,1-.751-1.175c-1-2.141,1.345-4.284,1.345-4.284a8.189,8.189,0,0,0-5.327,5.978" transform="translate(-1145.48 -307.068)" fill="none"/>
    </clipPath>
    <linearGradient id="linear-gradient-5" x1="-20.423" y1="10.534" x2="-20.405" y2="10.534" gradientUnits="objectBoundingBox">
      <stop offset="0" stop-color="#eebe63"/>
      <stop offset="1" stop-color="#dc3b57"/>
    </linearGradient>
    <clipPath id="clip-path-10">
      <path id="Path_79" data-name="Path 79" d="M1149.38,343.1a.223.223,0,0,0-.223.224v1.333a1.129,1.129,0,0,0,1.129,1.129h.151a.225.225,0,0,1,.223.2l2.5,27.048a.444.444,0,0,0,.884,0l2.5-27.048a.223.223,0,0,1,.223-.2h.152a1.13,1.13,0,0,0,1.13-1.129V343.32a.224.224,0,0,0-.223-.224Z" transform="translate(-1149.157 -343.096)" fill="none"/>
    </clipPath>
    <linearGradient id="linear-gradient-6" x1="-45.12" y1="6.21" x2="-45.081" y2="6.21" xlink:href="#linear-gradient-3"/>
    <clipPath id="clip-path-11">
      <path id="Path_80" data-name="Path 80" d="M1151.738,354.439a.81.81,0,0,0,0,1.619h6.039a.81.81,0,0,0,0-1.619Z" transform="translate(-1150.929 -354.439)" fill="none"/>
    </clipPath>
    <linearGradient id="linear-gradient-7" x1="-51.479" y1="70.22" x2="-51.435" y2="70.22" xlink:href="#linear-gradient-3"/>
  </defs>
  <g id="cyber-security-left-img-2" data-name="cyber-security-left-img" transform="translate(-1688 -911)" clip-path="url(#clip-path)">
    <g id="Group_24" data-name="Group 24" transform="translate(1691.322 947.954)">
      <g id="Group_2" data-name="Group 2">
        <g id="Group_1" data-name="Group 1" clip-path="url(#clip-path-2)">
          <path id="Path_1" data-name="Path 1" d="M69.371,676.672s-1.738-.722-2.007-.823a4.531,4.531,0,0,0-1.93.368,5.259,5.259,0,0,0-1.979,1.223.8.8,0,0,0-.021.676,1.56,1.56,0,0,0,.463.637.948.948,0,0,0,.372.835.821.821,0,0,0,.509.761s-.015.513.39.653a6.216,6.216,0,0,1,1.092-.165,18.669,18.669,0,0,0,3.76-1.411s.778-.9-.65-2.754" transform="translate(-41.237 -439.785)" fill="#dba585"/>
          <path id="Path_2" data-name="Path 2" d="M73.025,681.443a4.614,4.614,0,0,0,.943.77c.282.1-.729,1.972-.729,1.972s-1.013-1.915-.214-2.742" transform="translate(-47.32 -443.444)" fill="#bd8a6d"/>
          <path id="Path_3" data-name="Path 3" d="M80.643,654.094s9.233-.9,11.231-1.7c.924-.372,1.513-1.588,2.49-3.313.322-.568.633-1.161.926-1.745v0c1.169-2.333,2.031-4.532,2.031-4.532s3.621-5.713-.19-7.487a3.977,3.977,0,0,0-2.24.8c-.692.678-2.144,4.745-2.479,5.4-.37.725-2.126,6.739-2.328,6.91s-2.529.626-4.045,1a39.038,39.038,0,0,1-6.192.63Z" transform="translate(-51.96 -413.425)" fill="#5e5f6f"/>
          <path id="Path_4" data-name="Path 4" d="M192.052,866.93a9.446,9.446,0,0,0,1.1,1.882c.492.528,2.349,1.447,2.4,3.057.058,1.745-3.051,1.342-4.264,1.311s-1.328-.961-1.865-1.935-1.046-.793-1.163-1.588a10.152,10.152,0,0,1,.322-2.591Z" transform="translate(-122.494 -564.149)" fill="#25252a"/>
          <path id="Path_5" data-name="Path 5" d="M118.192,868.926a8.276,8.276,0,0,1-3.343,2.233c-1.7.416-2.888.922-2.874,1.939s4.973,1.555,6.906.478c2.884-1.607,3.194-1.155,3.5-1.927s-.463-2.8-.449-3.043c.017-.3-3.737.32-3.737.32" transform="translate(-72.867 -565.185)" fill="#25252a"/>
          <path id="Path_6" data-name="Path 6" d="M120.68,715.68s-1.43,12.917-2.037,17.287c-.71,5.108-.886,9.32-1.052,11.958-.209,3.32,3.37,21.052,3.189,22.025s5.579-.55,5.579-.55-2.386-21.149-1.6-24.7c.735-3.3,3.32-17.819,4.1-16.942s5.912,16.591,6.537,19.166,6.528,22.709,6.528,22.709,4.031.755,5.03-.083c0,0-3.995-18.536-4.479-23.382-.183-1.846-1.818-22.027-5.165-30.131-1.769-4.283-16.631,2.644-16.631,2.644" transform="translate(-76.516 -463.094)" fill="#3f3f48"/>
          <path id="Path_7" data-name="Path 7" d="M137.593,656.072s-1.885-.573-2.811-.717,9.355-7.281,9.257-9.633a59.969,59.969,0,0,0-1.257-6.915.039.039,0,0,1,0,.008v0a.092.092,0,0,1,0,.01,48.285,48.285,0,0,0-1.345,8.157c.018,2.607.675,12.567.675,12.567l-3.873.481-11.151.571-2.334-.212s.164-4.27.213-6.3c.03-1.288.219-3.6.1-5.841a20.648,20.648,0,0,0-.285-3.38c-.145-4.5-.535-8.943-.535-8.943q-.308-3.052-.468-5.716c.484-.273,1.067-.593,1.535-.831,1.447-.735,3.461-1.73,4.755-2.365.758-.372,1.5-.65,1.5-.65s5.22-.641,5.646-.625a13.292,13.292,0,0,1,1.661.519,60.286,60.286,0,0,1,6.071,2.387c.852.576,3,14.744,3.1,15.737.192,1.788-10.449,11.686-10.449,11.686" transform="translate(-80.542 -407.197)" fill="#e89f5f"/>
          <path id="Path_8" data-name="Path 8" d="M126.863,719.113a92.74,92.74,0,0,0,14.366-.383l.059,2.2s-10.035,1.723-14.713-.028Z" transform="translate(-82.368 -467.708)" fill="#2a2a2f"/>
          <path id="Path_9" data-name="Path 9" d="M123.128,630.827a5.56,5.56,0,0,0-1.85,1.17c.106,1.806.562,3.734.772,5.806,0,0,.279,5.068.7,9.87a9.581,9.581,0,0,1,.15,2.112c-.048.943-.122,1.973-.216,3.048,0,.014,0,.028,0,.041-.022.255-.046.512-.071.771a.065.065,0,0,1,0,.012,112.267,112.267,0,0,1-1.974,13.43c-.11.391.317.739.623,1.009l2.131,1.264s.652-7.972.867-10.678c.207-2.613.985-6.128,1.275-9.541h0c.369-4.33.922-8.578,1.214-11.1a42.12,42.12,0,0,1,1.928-9.528c-1.458.662-5.545,2.315-5.545,2.315" transform="translate(-78.491 -409)" fill="#5e5f6f"/>
          <path id="Path_10" data-name="Path 10" d="M144.925,632.374s-.086,2.006,1.609,2.008a4.444,4.444,0,0,0,3-1.661l-2.793.8-1.75-1.4Z" transform="translate(-94.308 -411.345)" fill="#c7c5ce"/>
          <path id="Path_11" data-name="Path 11" d="M144.417,588.63s-3.868.76-3.047,6.826,4.236,5.438,4.466,5.424,3.451-.018,3.423-7.462c0,0-.1-5.5-4.842-4.788" transform="translate(-91.921 -383.005)" fill="#dba686"/>
          <path id="Path_12" data-name="Path 12" d="M146.188,617.471s.067,2.506-.021,3.051c-.1.587,3.18,2.187,5.214.167a21.552,21.552,0,0,1-.389-3.7c.105-.969-4.8.479-4.8.479" transform="translate(-95.116 -401.286)" fill="#dba686"/>
          <path id="Path_13" data-name="Path 13" d="M140.313,603.888s-.443-.44-.583.028a8.049,8.049,0,0,0,.707,2.589s.084.176.183.074a22.329,22.329,0,0,0-.307-2.69" transform="translate(-90.917 -392.854)" fill="#dba686"/>
          <path id="Path_14" data-name="Path 14" d="M163.775,601.885s.4-.479.582-.028a7.818,7.818,0,0,1-.459,2.644s-.127.214-.235.122a22.366,22.366,0,0,1,.112-2.738" transform="translate(-106.483 -391.528)" fill="#dba686"/>
          <path id="Path_15" data-name="Path 15" d="M140.377,591.312c.156.829.3,1.444.3,1.444l.586.723a14.881,14.881,0,0,1,0-1.891c.03-.1.064-.272.1-.459.056-.309.114-.659.156-.775a8.319,8.319,0,0,1,6.237.033s-.018.252-.008.532c.009.326.054.691.206.742.281.094.213,1.908.213,1.908l.438-.535s.105-.949.205-2.038a.051.051,0,0,0,0-.009c.023-.253.045-.515.067-.775a5.079,5.079,0,0,0-1.58-4.2,7.012,7.012,0,0,0-5.048.156,1.75,1.75,0,0,0-.744.217c-1.546,1.794-1.129,4.93-1.129,4.93" transform="translate(-91.316 -381.09)" fill="#263643"/>
          <path id="Path_16" data-name="Path 16" d="M151.633,621.36a2.47,2.47,0,0,1-2.038.882,2.807,2.807,0,0,1-2.088-.728,2.514,2.514,0,0,0,2.111,1.356,2.543,2.543,0,0,0,2.015-1.51" transform="translate(-95.989 -404.346)" fill="#b68b72"/>
          <path id="Path_17" data-name="Path 17" d="M145.887,628.428l1.478,1.034a15.107,15.107,0,0,1-1.333-3.584Z" transform="translate(-94.935 -407.286)" fill="#9d9ca3"/>
          <path id="Path_18" data-name="Path 18" d="M142.721,625.878l-.968.944-.955,3.121,1.777-1.516Z" transform="translate(-91.623 -407.286)" fill="#e7e4f0"/>
          <path id="Path_19" data-name="Path 19" d="M146.891,628.509a17.017,17.017,0,0,0,1.128,2.665s1.485-1.373,1.952-1.861-3.08-.8-3.08-.8" transform="translate(-95.588 -408.998)" fill="#dba686"/>
          <path id="Path_20" data-name="Path 20" d="M151.672,631.751l-1.552,1.533a7.11,7.11,0,0,0,2.222-.5Z" transform="translate(-97.69 -411.108)" fill="#9d9ca3"/>
          <path id="Path_21" data-name="Path 21" d="M156.6,623.728a15.068,15.068,0,0,1-2.039,2.8l1.475,2.308,2.155-4.174Z" transform="translate(-100.581 -405.887)" fill="#e7e4f0"/>
          <path id="Path_22" data-name="Path 22" d="M159.614,654.947c-.14-.536-.265-1.068-.381-1.588,0,0,.008,0,.008-.008,3.113-3.39,6.286-7.043,6.2-7.746-.125-.988-2.1-15.853-2.959-16.429-.49-.335-4.1-1.506-5.87-2.15-.324-.116-1.352-.517-1.64-.616a42.118,42.118,0,0,0-3.552,14.054,79.636,79.636,0,0,0,.883,8.716c.174,1.326.352,2.533.522,3.68-1.9,1.911-3.384,3.45-3.2,3.752a38,38,0,0,0,3.78,2.919s.109-.11.3-.31c.605,4.8,1.023,8.436,1.023,8.436l5.384-2.571c.871-.465,2.044-2.307,1.685-3.226a66.2,66.2,0,0,1-2.192-6.915M159.465,640s.311,1.451.59,4.219a4.473,4.473,0,0,1-1.259,2.318,57.992,57.992,0,0,1,.669-6.537" transform="translate(-97.359 -407.633)" fill="#5e5f6f"/>
          <rect id="Rectangle_2" data-name="Rectangle 2" width="3.611" height="2.685" transform="matrix(1, -0.027, 0.027, 1, 49.95, 251.395)" fill="#3e4265"/>
        </g>
      </g>
      <g id="Group_4" data-name="Group 4" transform="translate(1.954 194.645)">
        <g id="Group_3" data-name="Group 3" clip-path="url(#clip-path-3)">
          <rect id="Rectangle_4" data-name="Rectangle 4" width="48.272" height="48.679" transform="matrix(0.335, -0.942, 0.942, 0.335, -11.884, 33.379)" fill="url(#linear-gradient)"/>
        </g>
      </g>
      <g id="Group_6" data-name="Group 6">
        <g id="Group_5" data-name="Group 5" clip-path="url(#clip-path-2)">
          <rect id="Rectangle_5" data-name="Rectangle 5" width="1.307" height="70.708" transform="translate(0.004 225.968) rotate(-62.366)" fill="#ebc28e"/>
          <path id="Path_24" data-name="Path 24" d="M63.638,679.424s2.246-.675,2.4-.327a.594.594,0,0,1,0,.569l1.051.142a.609.609,0,0,1-.075,1.044s.646.391-.11.848c0,0,.312.449,0,.723a7.839,7.839,0,0,1-1.776.647s-.344-.06-.39-.653a.807.807,0,0,1-.508-.761.892.892,0,0,1-.372-.835s-.848-.57-.443-1.314c0,0,.132-.056.227-.083" transform="translate(-41.193 -441.853)" fill="#c99a7d"/>
          <path id="Path_25" data-name="Path 25" d="M71.616,675.939a7.955,7.955,0,0,0-1.527,2c-.083.2-.126.411.029.563s.573.122,1.1-.336a5.863,5.863,0,0,1,1.419-.807s.4-.629-1.02-1.422" transform="translate(-45.561 -439.863)" fill="#dba585"/>
          <path id="Path_26" data-name="Path 26" d="M144.907,719.188a2.23,2.23,0,0,0,.54-.458s.2-.381.361-.644a1.731,1.731,0,0,1,.133-.2,4.085,4.085,0,0,0,.743-1.062c.227-.529.839-2.48.839-2.48l-1.571-.815-1.111-1.06a26.271,26.271,0,0,0-3.128,2.485,1.21,1.21,0,0,0-.068.136,5.133,5.133,0,0,0-.227,1.042c-.027.085-.236.948-.076,1.16a.867.867,0,0,0,.745.4,2.067,2.067,0,0,0,.933.653,1.289,1.289,0,0,0,1.033.481s.47.49.854.364" transform="translate(-91.939 -463.635)" fill="#dca787"/>
          <path id="Path_27" data-name="Path 27" d="M153.054,704.334a31.674,31.674,0,0,1-3.985-3.042l5.793-6.035,4.363,2.526Z" transform="translate(-97.006 -452.434)" fill="#5e5f6f"/>
          <path id="Path_28" data-name="Path 28" d="M169.032,705.144l-4.854,3.185-.092.06,4.564-4.841h.009s0,0-.008.008c.116.519.241,1.052.381,1.588" transform="translate(-106.778 -457.829)" fill="#3e3f48"/>
          <path id="Path_29" data-name="Path 29" d="M1408.171,864.489a4.19,4.19,0,0,0,.564,1.432c.4.543,1.993,1.063,2.631,1.637s4.393.753,4.328,1.457-.741,2.41-4.527,2c-3.539-.387-5.468-.1-7.289-.5-1.007-.221.525-5.967.333-6.51s3.96.487,3.96.487" transform="translate(-913.339 -562.14)" fill="#363957"/>
          <path id="Path_30" data-name="Path 30" d="M1265.155,865.972a8.453,8.453,0,0,1-.784,1.456c-.36.455-1.107.53-2.858,1.395s-4.96,1.035-4.479,1.948,5.13,1.448,6.515,1.278c1.477-.179,4.6.161,5.129-.535s.34-4.03.243-4.318a5.965,5.965,0,0,1,.36-1.631Z" transform="translate(-817.974 -563.26)" fill="#363957"/>
          <path id="Path_31" data-name="Path 31" d="M1409.47,865.561a10.784,10.784,0,0,1-4.809.316l.285-2.235,3.805-.352Z" transform="translate(-914.073 -561.78)" fill="#dba585"/>
          <path id="Path_32" data-name="Path 32" d="M1282.722,868.189a13.978,13.978,0,0,1-4.591,0l.784-1.456h4Z" transform="translate(-831.735 -564.02)" fill="#dba585"/>
          <path id="Path_33" data-name="Path 33" d="M1314.283,708.249s3.158,7.738,3.973,11.576,2.448,12.042,2.928,13.241a67.181,67.181,0,0,1,1.919,8.109c.24,1.68,4.029,22.022,4.029,22.022l-5.42.384s-1.285-11.411-3.685-15.538-3.137-10.138-3.472-11.336-7.572-16.93-7.86-17.65-1.055-.863-1.775,1.631-8.918,14.548-9.686,15.458-.915,6.479-3.073,9.5-8.377,16.962-8.473,18.305c0,0-2.814-.122-5.555-.469,0,0,8.6-23.222,8.988-25.188s3.07-7.773,3.454-10.171,6.092-17.512,6.766-18.569,16.943-1.309,16.943-1.309" transform="translate(-831.735 -460.888)" fill="#d7c9c2"/>
          <path id="Path_34" data-name="Path 34" d="M1343.425,576.136s3.07-.192,3.84,5.613.1,8.54-3.84,8.493-5.565-7.005-5.709-7.773-1.486-6.62,5.709-6.333" transform="translate(-870.386 -374.91)" fill="#dba585"/>
          <path id="Path_35" data-name="Path 35" d="M1311.832,590.855s3.406,1.584,4.7,1.584,5.149-1.072,6.2-1.936,5.118-2.767,5.455-3.631,5.326-12.33,5.805-12.714,1.726.431,1.726.431-3.358,12.81-3.6,13.53-4.99,6.67-8.348,8.493-7.052,4.174-7.052,4.174l-16.442.943a13.767,13.767,0,0,1-1.6,1.983,59.681,59.681,0,0,0-4.606,6.749c-.48,1.056-.576,1.9-1.392,3.775s-3.455,8.571-3.455,9.867-2.593,1.415-2.688.7,2.39-11.882,2.545-13.314a48.788,48.788,0,0,1,2.183-6.588,52.894,52.894,0,0,1,3.382-6.461c.719-.863,2.975-2.878,4.318-3.215a42.081,42.081,0,0,0,6.286-2.974,10.577,10.577,0,0,0,1.1-.789Z" transform="translate(-837.208 -373.563)" fill="#dba585"/>
          <path id="Path_36" data-name="Path 36" d="M1347.227,608.344s-5.956,2.134-5.988-1a36.733,36.733,0,0,0-1.485-7.937s7.536,2.572,7.345,3.02a14.548,14.548,0,0,0-.029,2.564c.018.539.041,1.094.065,1.593.046.988.092,1.761.092,1.761" transform="translate(-871.836 -390.06)" fill="#dba585"/>
          <path id="Path_37" data-name="Path 37" d="M1323.995,620.653a35.131,35.131,0,0,0,4.615.936c1.031,0,5.3-1.248,5.517-1.632,0,0,2.758,5.063,2.878,6.837,0,0-4.221,2.662-4.415,3.335s.161,3.518-.031,4.733-.383,5.023-.671,6.526a61.7,61.7,0,0,0-.679,9.316c.216,1.079-7.925,3.366-16.944,1.4,0,0,.24-3.5.431-4.75s.192-6.333-.431-7.677-3.005-6.371-3.005-6.371l-.886.855s-5.177-3.311-6.233-3.982a13.065,13.065,0,0,1,7.293-6.237s6.256-2.367,6.631-3.223Z" transform="translate(-848.66 -403.432)" fill="#f43334"/>
          <path id="Path_38" data-name="Path 38" d="M1344.689,576.174a8.681,8.681,0,0,1-4.057.728c-2.567-.071-2.542.638-2.206,1.46s.479.868.479.868l-.864.336s-1.1-.72-1.222-.168-.067,3.618-.067,3.618-1.9-5.1-2.237-5.489-1.656-3.07.216-4.918a8.1,8.1,0,0,1,6.646-2.543c3.027.372,3.188-1.135,3.3-1.352,0,0,1.514,2.133,1.126,4.049a23.076,23.076,0,0,1-1.119,3.411" transform="translate(-867.928 -370.087)" fill="#393d3f"/>
          <path id="Path_39" data-name="Path 39" d="M1344.007,621.77s2.308,4.486,4.388,4.2c1.864-.259,1.612-3.579,1.543-4.262a.827.827,0,0,1-.007-.132Z" transform="translate(-874.603 -404.485)" fill="#dba585"/>
          <path id="Path_40" data-name="Path 40" d="M1288.021,713.577a2.1,2.1,0,0,0,.317,1.272c.36.36,1.579,1.167,1.579,1.863a1.552,1.552,0,0,1-.632,1.351c-.323.22.025,1.559-.672,1.7a1.7,1.7,0,0,1-1.631-.529c-.264-.36-.816-.12-1.319-.742s-1.488-1.032-.792-2.975,1.224-3.566,1.224-3.566Z" transform="translate(-835.964 -463.299)" fill="#dba585"/>
          <path id="Path_41" data-name="Path 41" d="M1416.188,570.452s.547-1.293.355-1.665a8.9,8.9,0,0,1-.3-1.429c-.106-.364-.755-1.263-.724-1.666a10.331,10.331,0,0,0,.481-1.478c-.012-.338-.119-1.022.177-1.018s.563.594.563.594a.424.424,0,0,1,.269-.386.73.73,0,0,1,.735.092s.218-.305.444-.314a.93.93,0,0,1,.717.219.853.853,0,0,1,.576-.09.779.779,0,0,1,.568.488s.56-.023.688.263a2.624,2.624,0,0,1,.1.8,9.69,9.69,0,0,1-1.216,3.882,7.164,7.164,0,0,0-1.019,2.86Z" transform="translate(-921.137 -366.487)" fill="#dba585"/>
          <path id="Path_42" data-name="Path 42" d="M1418.571,563.94s-.276,1.9.17,2.388.584-.193.584-.193-.149.67.38.85.648-.627.648-.627a.555.555,0,0,0,.606.524c.578-.015.522-.708.522-.708s.462.745.89.17a2.878,2.878,0,0,0,.3-2.32s-.132-.316-.688-.263a.77.77,0,0,0-1.143-.4s-.772-.6-1.16.095a.67.67,0,0,0-1.1.481" transform="translate(-923.07 -366.449)" fill="#c99a7d"/>
          <path id="Path_43" data-name="Path 43" d="M1342.155,593.188c-.155-.594-1.1-.959-1.319.24a2.258,2.258,0,0,0,1.319,2.35c.408-.023.24-1.68,0-2.591" transform="translate(-872.522 -385.653)" fill="#dba585"/>
          <path id="Path_44" data-name="Path 44" d="M1350.789,614.213c-4.409.3-5.42-3.083-5.42-3.083,2,2.984,5.355,1.49,5.355,1.49.018.539.041,1.094.065,1.593" transform="translate(-875.489 -397.689)" fill="#997761"/>
        </g>
      </g>
      <g id="Group_8" data-name="Group 8" transform="translate(215.218 207.302)">
        <g id="Group_7" data-name="Group 7" clip-path="url(#clip-path-5)">
          <rect id="Rectangle_7" data-name="Rectangle 7" width="130.122" height="128.795" transform="matrix(0.672, -0.741, 0.741, 0.672, -50.421, 55.572)" fill="url(#linear-gradient-2)"/>
        </g>
      </g>
      <g id="Group_10" data-name="Group 10" transform="translate(95.627 232.82)">
        <g id="Group_9" data-name="Group 9" clip-path="url(#clip-path-6)">
          <rect id="Rectangle_9" data-name="Rectangle 9" width="99.864" height="99.863" transform="translate(-27.883 63.572) rotate(-66.318)" fill="url(#linear-gradient-3)"/>
        </g>
      </g>
      <g id="Group_12" data-name="Group 12" transform="translate(340.178 232.82)">
        <g id="Group_11" data-name="Group 11" clip-path="url(#clip-path-6)">
          <rect id="Rectangle_11" data-name="Rectangle 11" width="99.864" height="99.864" transform="matrix(0.402, -0.916, 0.916, 0.402, -27.883, 63.572)" fill="url(#linear-gradient-4)"/>
        </g>
      </g>
      <g id="Group_14" data-name="Group 14">
        <g id="Group_13" data-name="Group 13" clip-path="url(#clip-path-2)">
          <path id="Path_45" data-name="Path 45" d="M406.46,355.131s-.912-1.59-1.044-1.838a4.414,4.414,0,0,1,.118-1.909,5.111,5.111,0,0,1,.938-2.065.785.785,0,0,1,.649-.1,1.523,1.523,0,0,1,.674.369.922.922,0,0,1,.852.256.8.8,0,0,1,.8.4.671.671,0,0,1,.679.3,6.1,6.1,0,0,0-.024,1.076,18.2,18.2,0,0,1-.9,3.807s-.777.865-2.741-.286" transform="translate(-263.779 -227.232)" fill="#dba585"/>
          <path id="Path_46" data-name="Path 46" d="M410.744,358.291a4.535,4.535,0,0,1,.862.816c.126.261,1.814-.949,1.814-.949s-1.976-.741-2.676.133" transform="translate(-267.289 -232.878)" fill="#bd8a6d"/>
          <rect id="Rectangle_13" data-name="Rectangle 13" width="9.642" height="4.445" transform="translate(148.374 130.624) rotate(-68.439)" fill="#7380d6"/>
          <path id="Path_47" data-name="Path 47" d="M369.725,317.5c-.182-.082-.368-.163-.557-.239l-5.276,13.352c.19.074.379.142.569.206a4.206,4.206,0,0,0,8.386.117,7.062,7.062,0,0,0,1.479-.8,5.872,5.872,0,0,1,3.337-.757l6.775,2.677c-.361,1.64.054,3.126,1.081,3.556l2.853-7.222c-1.043-.387-2.361.413-3.219,1.857l-6.776-2.677a5.869,5.869,0,0,1-1.916-2.833,7.132,7.132,0,0,0-.536-1.592,4.206,4.206,0,0,0-6.2-5.649m1.732,14.164a3.008,3.008,0,0,1-5.739-.474,12.632,12.632,0,0,0,5.848.146,2.783,2.783,0,0,1-.108.327m3.951-10a2.955,2.955,0,0,1-.145.314,12.634,12.634,0,0,0-4.368-3.892,3.008,3.008,0,0,1,4.513,3.577" transform="translate(-236.8 -205.867)" fill="#f1ce6f"/>
          <path id="Path_48" data-name="Path 48" d="M376.462,337.4a7.131,7.131,0,0,0-.536-1.592c-2.5,5.579-10.926,4.662-10.926,4.662l-1.108,2.8c.19.074.379.143.569.206a4.206,4.206,0,0,0,8.387.117,7.083,7.083,0,0,0,1.479-.8,5.869,5.869,0,0,1,3.337-.757l6.775,2.677c-.361,1.64.054,3.126,1.081,3.556l2.853-7.222c-1.043-.387-2.361.413-3.219,1.857l-6.776-2.677a5.871,5.871,0,0,1-1.916-2.834m-5,6.923a3.008,3.008,0,0,1-5.739-.473,12.632,12.632,0,0,0,5.848.146,2.754,2.754,0,0,1-.108.327" transform="translate(-236.8 -218.525)" fill="#dab659"/>
          <path id="Path_49" data-name="Path 49" d="M306.819,500.062a2.307,2.307,0,0,0,.349,1.4c.4.4,1.737,1.285,1.737,2.05a1.7,1.7,0,0,1-.7,1.485c-.354.243.027,1.716-.738,1.874a1.87,1.87,0,0,1-1.794-.579c-.291-.4-.9-.133-1.452-.819s-1.636-1.135-.871-3.272,1.347-3.921,1.347-3.921Z" transform="translate(-197.233 -324.25)" fill="#dba585"/>
          <path id="Path_50" data-name="Path 50" d="M408.086,349.493s-.374,2.253-.019,2.358a.581.581,0,0,0,.55-.073l.266,1s.549.56,1-.2c0,0,.459.577.806-.21,0,0,.473.245.7-.092a7.59,7.59,0,0,0,.405-1.8s-.1-.326-.679-.3a.787.787,0,0,0-.8-.4.865.865,0,0,0-.852-.256s-.655-.749-1.323-.266c0,0-.039.135-.054.231" transform="translate(-265.447 -227.175)" fill="#c99a7d"/>
          <path id="Path_51" data-name="Path 51" d="M405.55,357.315a7.756,7.756,0,0,1,1.746-1.723.473.473,0,0,1,.547-.042c.166.131.188.538-.189,1.1a5.748,5.748,0,0,0-.6,1.47s-.558.467-1.5-.81" transform="translate(-263.909 -231.325)" fill="#dba585"/>
          <path id="Path_52" data-name="Path 52" d="M331.9,640.235s-.763,3.238-1.07,4.3-2.014,3.353-2.32,4.42.089,1.642.6,1.76a5.872,5.872,0,0,0,3.42-.22c1.581-.593,2.365-2.878,3.219-4.14.8-1.181,1.717-1.529,1.22-3.159a6.066,6.066,0,0,1-.4-2.965Z" transform="translate(-213.706 -416.628)" fill="#232536"/>
          <path id="Path_53" data-name="Path 53" d="M396.465,597.866l-.761,1.6-3.9-2.026.762-1.6Z" transform="translate(-254.962 -387.738)" fill="#42466c"/>
          <path id="Path_54" data-name="Path 54" d="M386.914,600.417a35.2,35.2,0,0,1,4.137,1.535c.875.515,1.615,3.078,3.976,4.52s2.143,3.077,1.754,3.3-7.3-2.991-8.657-3.881l-.763-.826-.853.172-2.218-1.152s.788-2.906,2.623-3.671" transform="translate(-250.075 -390.717)" fill="#232536"/>
          <path id="Path_55" data-name="Path 55" d="M339.356,490.9a40.986,40.986,0,0,0-1.272,8.336c0,3.485.334,14.366,0,16.083s-.955,9.688-1.051,11.12-2.147,16.943-2.147,16.943,2.29,1.384,7.3.381c0,0,.286-16.131.572-18.516s1.145-10.213,1.718-11.072,5.536-21.621,4.82-25.391-9.942,2.115-9.942,2.115" transform="translate(-217.925 -317.253)" fill="#f43334"/>
          <path id="Path_56" data-name="Path 56" d="M375.584,488.72s12.409,10.34,13.746,12.582,2.2,2.53,1.622,4.917-9.02,21.619-9.02,22.24-5.891-1.9-6.273-1.947,2.217-3.733,3.028-6.072,4.366-11.836,5.035-13.029-13.435-8.495-14.914-10.26-.859-10.42,6.776-8.431" transform="translate(-239.581 -317.839)" fill="#f43334"/>
          <path id="Path_57" data-name="Path 57" d="M305.378,413.7s2.2,1.449,3.024,1.122,4.015-12.22,4.376-13.983,3.152-6.2,3.152-6.2l0,.008s0,0,0,0a.035.035,0,0,0,0,.007,45.536,45.536,0,0,1,2.953,7.207c.534,2.4,2.06,6.726,2.06,6.726l.762-.045,12.678-.75,1.137-.067a4.418,4.418,0,0,0-.013-2.806c-.3-1.177-.894-3.386-1.252-5.472,0-.011,0-.022-.006-.032s-.008-.053-.014-.079,0-.021,0-.031c-.191-1.147-1.079-1.979-1.032-2.843A11.5,11.5,0,0,0,332.5,392l-.834-4.527c.17.234,5.5-6.08,6.215-5.969s5.163-13.74,5.74-14.547c.616-.861-2.578-1.362-2.578-1.362L337.3,377.209l-4.728,5.034a10.263,10.263,0,0,1-2.575.069c-1.483-.371-3.544-.86-4.865-1.171-.775-.182-1.3-.3-1.3-.3s-5.148.535-5.536.638a12.275,12.275,0,0,0-1.416.825,41.17,41.17,0,0,0-4.415,3.084c-.66.709-3.574,13.088-3.868,13.983s-3.222,14.338-3.222,14.338" transform="translate(-198.723 -237.908)" fill="#d7c9c2"/>
          <path id="Path_58" data-name="Path 58" d="M364.35,486.259s.405.325.832,1.96c0,0-13.739,1.139-15.282.808,0,0-.423-1.811-.128-1.9.323-.1,14.577-.863,14.577-.863" transform="translate(-227.544 -316.43)" fill="#3a3d5d"/>
          <path id="Path_59" data-name="Path 59" d="M341.943,400.425c.466,2.1,4.777,2.428,4.777,2.428s1.275-2.483.826-2.6c-.175-.048-.3-.355-.4-.709a7.743,7.743,0,0,1-.17-.96c-.017-.151-.025-.25-.025-.25s-.707-.5-1.6-1.081c-1.553-1.019-3.665-2.3-3.537-1.648a.643.643,0,0,0,.04.121c.61,1.405.082,4.7.082,4.7" transform="translate(-222.434 -257.319)" fill="#dba585"/>
          <path id="Path_60" data-name="Path 60" d="M387.175,486.287s.574,1.632.708,2.265l-.674.047s-.557-2.069-.676-2.273Z" transform="translate(-251.533 -316.448)" fill="#2e3048"/>
          <path id="Path_61" data-name="Path 61" d="M344.9,400h0c.01.011.235.234.606.547a8.729,8.729,0,0,0,3.651,1.97,7.725,7.725,0,0,1-.17-.96,2.079,2.079,0,0,0,.4-.13,12.84,12.84,0,0,0-1.149-1.12l-.868-.08Z" transform="translate(-224.439 -260.299)" fill="#997761"/>
          <path id="Path_62" data-name="Path 62" d="M337.218,381.69c.508.7.955,1.186,1.095,1.387a2.785,2.785,0,0,0,.606.547,4.8,4.8,0,0,0,3.481,1.011,2.13,2.13,0,0,0,.4-.13A1.965,1.965,0,0,0,344,383.251a11.252,11.252,0,0,0-1.122-9.2s-7.354-.566-8.021,1.748c-.468,1.623,1.165,4.251,2.358,5.887" transform="translate(-217.854 -243.373)" fill="#dba585"/>
          <path id="Path_63" data-name="Path 63" d="M340.067,368.16s.639-.167.552-1.424-.474-1.513-.474-1.513-1.173.429-3.943-.207c-1.038-.238-3.865.046-4.322.847,0,0-1.512-.045-1.423,2.432.143,3.931,3.639,7.071,3.639,7.071s-.524-2.481-.043-2.921,1.112.249,1.112.249l1.162-.025s-2.444-3.334-.429-3.882,3.041-.177,4.167-.627" transform="translate(-215.041 -237.48)" fill="#2c3548"/>
          <path id="Path_64" data-name="Path 64" d="M339.432,382.822c-.328-1.074-2.391-1.093-2.027.029s1.561,2.026,2,1.9.273-1.107.024-1.926" transform="translate(-219.535 -248.592)" fill="#dba585"/>
          <path id="Path_65" data-name="Path 65" d="M312.624,431.97c-.458,1.74-3.18,13.3-4,13.627s-3.482-1.175-3.482-1.175,3.011-13.034,3.3-13.928,3.208-13.274,3.868-13.983a33.3,33.3,0,0,1,3.632-2.583c.273-.177.537-.347.783-.5.421.314,7.207,5.446,7.8,11.089.179,1.7.517,4.45.632,7.4a28.684,28.684,0,0,1-.779,8.327c-1.614,6.345-4.318,9.289-4.318,9.289l-6.383-3.775a1.245,1.245,0,0,1-.413-1.743c1.686-2.635,5.341-7.411,4.749-10.358,0,0-1.485-6.422-2.241-7.872,0,0-2.629,4.193-3.156,6.188" transform="translate(-198.569 -269.035)" fill="#363957"/>
          <path id="Path_66" data-name="Path 66" d="M374.279,375.366l3.252-10.431s3.645.037,3.59.791c-.034.475-2.576,11.432-3.2,12.381-.446.677-8.347,10.527-8.516,10.293l.461,3.219c.824,3.566.852,6.125,1.628,8.865,1.5,5.28,5.121,9.366,6.225,11.387a1.1,1.1,0,0,1-.013,1.119l-.7,1.348s-4.65-4.451-5.417-6.89c-.741-2.356-2.164-5.524-3.149-8.6-1.251-3.9-2.513-7.757-3.311-10.013a68.115,68.115,0,0,0-3.27-8.094l.026-.031a9.961,9.961,0,0,0,1.47.348c1.227.115,4.231.006,5.265-.033,0,0,4.5-3.667,5.659-5.66" transform="translate(-235.477 -237.479)" fill="#363957"/>
          <path id="Path_67" data-name="Path 67" d="M339.045,418.427l2.209.718-.674,1.036,4.714,11.734c-.115-2.95-.453-5.705-.632-7.4-.6-5.642-7.383-10.775-7.8-11.089-.245.155-.51.324-.782.5Z" transform="translate(-218.7 -269.034)" fill="#404367"/>
          <path id="Path_68" data-name="Path 68" d="M361.74,410.059a65.677,65.677,0,0,1,3.312,8.142c.8,2.256,2.06,6.113,3.311,10.013L366.524,416.7l-1.153-.833.629-1.22-2.724-4.23-1.47-.348Z" transform="translate(-235.4 -266.843)" fill="#404367"/>
          <path id="Path_69" data-name="Path 69" d="M322.1,414.861c-1.492.965-4.433,2.595-4.814,3.005-.66.708-2.392,12.666-2.686,13.561Z" transform="translate(-204.725 -269.968)" fill="#363957"/>
          <path id="Path_70" data-name="Path 70" d="M371.651,486.793s2.023-.162,2.708-.131l.361,2.23-2.642.245Z" transform="translate(-241.849 -316.69)" fill="#5d629a"/>
          <path id="Path_71" data-name="Path 71" d="M328.123,420.822s.662,6.094-3.757,7.768-9.914,6.118-11.372,8.314l-1.753,2.832L310.764,437s.124-4.658,13.332-8.885c0,0,3.853-.867,2.609-7.168,0,0,1.4-.393,1.418-.124" transform="translate(-202.227 -273.786)" fill="#cb4949"/>
          <path id="Path_72" data-name="Path 72" d="M357.078,418.178a2.4,2.4,0,0,1-2.357.626s.1-1.98.379-2.106,2.052,1.109,1.978,1.48" transform="translate(-230.832 -271.157)" fill="#cb4949"/>
          <path id="Path_73" data-name="Path 73" d="M338.046,411.077l1.444-1.332s.228.893,4.777,2.428l-.5,3.493Z" transform="translate(-219.981 -266.639)" fill="#eee0d7"/>
          <path id="Path_74" data-name="Path 74" d="M356.377,408.043a7.817,7.817,0,0,1-.518,3.022l2.852,2.49-.8-4.808Z" transform="translate(-231.573 -265.531)" fill="#eee0d7"/>
          <path id="Path_75" data-name="Path 75" d="M1343.071,634.085l-.7-.343a27.088,27.088,0,0,1-9.482-9l1.232-.541a25.606,25.606,0,0,0,8.153,7.951,34.211,34.211,0,0,0,1.757-9.26l1.352.306c0,.148.03,3.535-2.079,10.146Z" transform="translate(-867.371 -405.345)" fill="#b63a3a"/>
          <path id="Path_76" data-name="Path 76" d="M1359.132,647.985a2.025,2.025,0,1,1-2.2-2,2.108,2.108,0,0,1,2.2,2" transform="translate(-881.822 -420.365)" fill="#eebe63"/>
          <path id="Path_77" data-name="Path 77" d="M1151.238,390.741s1.285-1.822,1.475-2.038a4.527,4.527,0,0,1,1.878-.576,5.258,5.258,0,0,1,2.323.157.808.808,0,0,1,.334.588,1.564,1.564,0,0,1-.112.78.943.943,0,0,1,.061.91.823.823,0,0,1-.093.912.689.689,0,0,1-.04.759,6.214,6.214,0,0,0-1.043.365,18.7,18.7,0,0,1-3.984.51s-1.2-.064-.8-2.367" transform="translate(-749.107 -252.533)" fill="#dba585"/>
        </g>
      </g>
      <g id="Group_16" data-name="Group 16" transform="translate(400.067 107.246)">
        <g id="Group_15" data-name="Group 15" clip-path="url(#clip-path-9)">
          <rect id="Rectangle_15" data-name="Rectangle 15" width="19.41" height="19.435" transform="matrix(0.664, -0.748, 0.748, 0.664, -7.659, 7.608)" fill="url(#linear-gradient-5)"/>
        </g>
      </g>
      <g id="Group_18" data-name="Group 18" transform="translate(401.351 119.829)">
        <g id="Group_17" data-name="Group 17" clip-path="url(#clip-path-10)">
          <rect id="Rectangle_16" data-name="Rectangle 16" width="8.895" height="30.475" fill="url(#linear-gradient-6)"/>
        </g>
      </g>
      <g id="Group_20" data-name="Group 20" transform="translate(401.97 123.79)">
        <g id="Group_19" data-name="Group 19" clip-path="url(#clip-path-11)">
          <rect id="Rectangle_17" data-name="Rectangle 17" width="7.807" height="2.646" transform="translate(-0.218 0.03) rotate(-7.821)" fill="url(#linear-gradient-7)"/>
        </g>
      </g>
      <g id="Group_22" data-name="Group 22">
        <g id="Group_21" data-name="Group 21" clip-path="url(#clip-path-2)">
          <path id="Path_81" data-name="Path 81" d="M1161.487,388.715s-2.3.453-2.274.833a.6.6,0,0,0,.268.5l-.864.616s-.34.73.554.889c0,0-.389.648.494.7,0,0-.066.543.339.639a7.874,7.874,0,0,0,1.873-.258s.277-.214.04-.759a.809.809,0,0,0,.093-.912.888.888,0,0,0-.061-.91s.483-.9-.222-1.368c0,0-.144.012-.241.031" transform="translate(-753.921 -252.933)" fill="#c99a7d"/>
          <path id="Path_82" data-name="Path 82" d="M1154.943,389.822a7.942,7.942,0,0,1,2.285,1.056c.167.139.3.3.239.511s-.45.375-1.13.217a5.928,5.928,0,0,0-1.631-.051s-.651-.367.238-1.734" transform="translate(-751.267 -253.674)" fill="#dba585"/>
          <path id="Path_83" data-name="Path 83" d="M1052.672,374.3a2.744,2.744,0,0,0-3.684.967c-1.747,2.209-1.118,4.332-.754,6.316.363,1.967,2.124,6.468,1.376,8.45a2.915,2.915,0,0,0,.208,3.015s6.006,1.538,5.306-7.5-2.452-11.252-2.452-11.252" transform="translate(-681.861 -243.349)" fill="#363957"/>
          <path id="Path_84" data-name="Path 84" d="M1145.478,391.547s-2.918,2.888-4.713,3.551,1.478,2.567,1.478,2.567l3.936-4.027Z" transform="translate(-741.995 -254.796)" fill="#dba686"/>
          <path id="Path_85" data-name="Path 85" d="M1070,407.576s-.088-2.372,1.744-2.945a32.929,32.929,0,0,1,5.784-.776c.818-.088,8.756-2,8.984-2.182s3.515-2.279,5.952-3.566,5.781-3.585,5.781-3.585l1.171,2.879s-7.681,6.829-10.289,7.7c-2.787.927-16.265,4.889-16.265,4.889s-2.97,1.224-2.862-2.41" transform="translate(-696.29 -256.733)" fill="#3b5e90"/>
          <path id="Path_86" data-name="Path 86" d="M1107.78,654.9s2.475,3.33,2.135,3.859-2.941.6-4.524,0-1.621-4.507-2.338-6.184c-.3-.7.342-2.775,1.244-2.924a3.793,3.793,0,0,1,1.883.291s-.935,2.362,1.6,4.959" transform="translate(-717.756 -422.734)" fill="#47558d"/>
          <path id="Path_87" data-name="Path 87" d="M1107.587,649.823a15.776,15.776,0,0,1,.711,2.772c.157,1.124,1.762,3.509,1.687,3.811s-2.112.575-2.942-.2-1.362-3.039-1.545-4.393a10.812,10.812,0,0,0-.385-1.881s1.682-.935,2.474-.107" transform="translate(-719.145 -422.645)" fill="#dba585"/>
          <path id="Path_88" data-name="Path 88" d="M1103,657.24v3.487h.453v-2.695Z" transform="translate(-717.771 -427.694)" fill="#47558d"/>
          <path id="Path_89" data-name="Path 89" d="M1045.959,654.958s2.385,3.275,2.045,3.8-2.941.6-4.525,0-1.62-4.508-2.337-6.184c-.3-.7.342-2.775,1.244-2.924a4.051,4.051,0,0,1,1.96.322s-.924,2.386,1.612,4.983" transform="translate(-677.468 -422.738)" fill="#47558d"/>
          <path id="Path_90" data-name="Path 90" d="M1046.428,649.743a22.411,22.411,0,0,0,.49,2.64c.3,1.094,1.923,3.582,1.848,3.884s-2.112.575-2.942-.2-1.47-3.029-1.545-4.393a7.247,7.247,0,0,1,.189-2.251,1.84,1.84,0,0,1,1.96.322" transform="translate(-679.548 -422.506)" fill="#dba585"/>
          <path id="Path_91" data-name="Path 91" d="M1041.09,657.24v3.487h.453v-2.695Z" transform="translate(-677.482 -427.694)" fill="#47558d"/>
          <path id="Path_92" data-name="Path 92" d="M1051.617,481.968s2.123,9.875,2.61,12.362,1.853,14.53,2,16.576,2.215,9.764,2.118,10.494,3.183,15.245,3.183,15.245-3.378.918-3.946.3c-.483-.526-5.335-13.8-5.335-17.453,0-5.054-3.442-11.645-3.843-12.807-3.722-10.793-3.976-13.693-4.56-14.376s-.636.422-.977,1.933-1.072,14.578-1.511,16.236-.1,7.265-.342,10.092-.524,15.5-.524,15.5-2.446.563-3.608.021c-.335-.157-1.181-14.115-1.23-17.48s-.1-8-.194-9.457c-.9-13.941-3.124-15.933.372-25.8,6.547-18.473,15.787-1.386,15.787-1.386" transform="translate(-672.821 -308.952)" fill="#f43334"/>
          <path id="Path_93" data-name="Path 93" d="M1048.337,419.825a23.114,23.114,0,0,0,2.985,1.2c.77.155,3.755,4.033,4.278,5.448s0,3.539-1.077,6.032-.062,3.324-.554,5.816.323,9.009.415,10.394-13.642,1.8-16.5-.718c0,0,1.722-6.072,2.091-6.688s1.164-3.6.827-4.465-2.592-8.19-2.592-8.19-1.843-5.628-.178-6.921c1.447-1.124,5.389-1.523,6.1-1.77a12.106,12.106,0,0,1,4.214-.139" transform="translate(-675.035 -273.123)" fill="#3b5e90"/>
          <path id="Path_94" data-name="Path 94" d="M1070.752,423.51l1.345-1.575-1.169-4.152a27.382,27.382,0,0,0-.177,5.728" transform="translate(-696.742 -271.869)" fill="#cfc3bc"/>
          <path id="Path_95" data-name="Path 95" d="M1062.051,407.069a52.7,52.7,0,0,0-.349,5.387s-2.3,2.309-4.922-2.692a6.87,6.87,0,0,0,.273-4.871c-.829-2.807,5,2.176,5,2.176" transform="translate(-687.692 -262.923)" fill="#dba585"/>
          <path id="Path_96" data-name="Path 96" d="M1065.933,428.146v2.108l-2.651-1.98Z" transform="translate(-691.924 -278.613)" fill="#dba585"/>
          <path id="Path_97" data-name="Path 97" d="M1061.916,424.765l-1.1-1.361-3.706-3.693.23,2.19Z" transform="translate(-687.907 -273.124)" fill="#cfc3bc"/>
          <path id="Path_98" data-name="Path 98" d="M1072.547,421.934l1.7.468-2.866-4.621Z" transform="translate(-697.192 -271.869)" fill="#f3e4dc"/>
          <path id="Path_99" data-name="Path 99" d="M1058.936,423.4l-1.55,2.031-3.165-5.307,1.01-.418Z" transform="translate(-686.026 -273.124)" fill="#f3e4dc"/>
          <path id="Path_100" data-name="Path 100" d="M1063.6,412l-.081.8s-1.825.356-4.22-2.565a5.2,5.2,0,0,0,4.3,1.764" transform="translate(-689.33 -266.956)" fill="#997761"/>
          <path id="Path_101" data-name="Path 101" d="M1059.318,388.987c.72-.027,2.733-.262,3.725-4.9,1.213-5.664-1.467-8.6-3.762-9.146s-4.411.254-5.587,3.214c0,0-.859,2.309.535,6.42s4.316,4.438,5.088,4.41" transform="translate(-685.515 -243.888)" fill="#dba686"/>
          <path id="Path_102" data-name="Path 102" d="M1056.278,378.034s3.083.192,5.947,4.5c0,0,1.341-5.178-2.163-7.541s-5.96-.332-6.814.7c0,0-1.227.283-1.266,2.609s-1.6,5.839,1.83,7.5a11.4,11.4,0,0,1-.024-3.263c.3-.607,1.352-.2,2.491-4.5" transform="translate(-684.317 -243.307)" fill="#363957"/>
          <path id="Path_103" data-name="Path 103" d="M1056.694,394.968c-.156-.4-.58-.566-.812-.134s.044,2.107.666,2.29.461-1.34.146-2.156" transform="translate(-687.055 -256.769)" fill="#dba686"/>
          <path id="Path_104" data-name="Path 104" d="M994.771,506.324a2,2,0,0,1-.059-.633s.111-.371.174-.64a1.917,1.917,0,0,0,.041-.209,3.639,3.639,0,0,1,.191-1.147c.187-.482,1.022-2.114,1.022-2.114l1.518.465,1.376.02a23.725,23.725,0,0,1,.441,3.556,1.344,1.344,0,0,1-.042.13,4.712,4.712,0,0,1-.509.81c-.037.071-.446.753-.682.789a.776.776,0,0,1-.725-.215,1.865,1.865,0,0,1-1.009-.168,1.157,1.157,0,0,1-.962-.343s-.609.018-.775-.3" transform="translate(-647.295 -326.4)" fill="#dca787"/>
          <path id="Path_105" data-name="Path 105" d="M1017.87,423.239s-3.341-1.369-5.73.041-3.1,3.808-3.884,4.687-3.282,4.961-3.743,5.6-2.04,4.594-3.451,7.726-3.4,9.2-3.4,9.2l3.467.517s2.089-5.718,3.307-9.03,5.942-8.293,7.847-10.528,7.645-5.706,5.589-8.213" transform="translate(-649.221 -275.032)" fill="#3b5e90"/>
          <path id="Path_106" data-name="Path 106" d="M574.819,348.178s-11.3-5.926-23.04-.974-28.38,15.54-39.787,8.267-24.445,3.669-24.445,3.669,20.9-1.8,15.947,19.9c-3,13.161,23.018,12.73,31.167,2.6s8.125-13.332,15.554-13.543c12.635-.359,14.261-12.572,20.553-8.847s4.051-11.078,4.051-11.078" transform="translate(-317.268 -224.656)" fill="#b63a3a"/>
          <path id="Path_107" data-name="Path 107" d="M726.17,439.882s3.984,8.651,5.364,10.376,4.493,7.15,4.362,8.194a8.757,8.757,0,0,1-1.484,4.321c-1.28,2.007-1.884,6.746-1.778,8.273s1.019,10.48.849,11.223,2.4.918,2.388-.1a112.455,112.455,0,0,1,2.331-14.158c.8-2.808,3.5-8.031,3.317-9.581s-1.9-8.986-2.557-11.219c-1.168-3.984-3.421-10.933-3.819-11.826-.444-1-10.5-7.371-8.972,4.491" transform="translate(-472.448 -281.634)" fill="#dba686"/>
          <path id="Path_108" data-name="Path 108" d="M689.444,428.592s-3.079,3.681-2.03,7.824,3.627,13.286,3.783,14.78,1.107,3.851-.094,3.806a21.341,21.341,0,0,0-6.842.36c-2.195.489-5.294-.093-7.534.051-.887.057-.839,1.749-.062,2.4.609.509,15.832,3.152,18.617,2.55,1.211-.262,1.784-1.739,2.149-6.253.164-2.035-.074-9.021.211-11.445a41.247,41.247,0,0,0,.006-6.184s4.286-10.694-8.205-7.887" transform="translate(-439.95 -278.598)" fill="#dba686"/>
          <path id="Path_109" data-name="Path 109" d="M721.485,433.8a28.8,28.8,0,0,1-7.981,5.871,5.032,5.032,0,0,1-.937.178,13.657,13.657,0,0,0-3.557-5.567,6.822,6.822,0,0,0-6.193-1.7c.006-.075.048-.2.061-.279h0a7.685,7.685,0,0,1,1.288-2.665.025.025,0,0,1,0-.006.011.011,0,0,0,0,0c9.317,3.056,15.63,2.081,16.369,1.95l.074-.013c.256.552.869,2.24.869,2.24" transform="translate(-457.354 -279.574)" fill="#8ec2b6"/>
          <path id="Path_110" data-name="Path 110" d="M766.7,261.687a3.228,3.228,0,0,1,.031-1.136,5.256,5.256,0,0,0,.022-1.347,12.382,12.382,0,0,1,.234-2.159,9.336,9.336,0,0,0,.763-1.172c.068-.3.133-.916.39-.844s.351.646.351.646a.38.38,0,0,1,.323-.272.657.657,0,0,1,.619.251s.258-.216.458-.17a.833.833,0,0,1,.573.356.768.768,0,0,1,.521.054.7.7,0,0,1,.38.557s.492.11.538.387a2.419,2.419,0,0,1-.1.726,8.111,8.111,0,0,1-1.884,3.021,3.6,3.6,0,0,0-1,2.631Z" transform="translate(-498.901 -165.955)" fill="#dba585"/>
          <path id="Path_111" data-name="Path 111" d="M640.732,424.572a3.209,3.209,0,0,0-.974.584,5.231,5.231,0,0,1-1.163.681,12.308,12.308,0,0,0-1.764,1.265,9.391,9.391,0,0,1-.646,1.24c-.225.205-.733.568-.544.755s.736-.011.736-.011a.38.38,0,0,0-.078.414c.224.418.522.416.522.416s-.059.331.078.483a.83.83,0,0,0,.592.322.769.769,0,0,0,.3.428.7.7,0,0,0,.671.058s.338.375.6.277a2.379,2.379,0,0,0,.585-.439,8.114,8.114,0,0,0,1.7-3.126,3.6,3.6,0,0,1,1.8-2.165Z" transform="translate(-413.611 -276.287)" fill="#dba585"/>
          <path id="Path_112" data-name="Path 112" d="M637.68,434.372s1.049-1.374,1.643-1.395.243.5.243.5.338-.518.785-.291.006.81.006.81a.5.5,0,0,1,.718.059c.354.383-.126.784-.126.784s.772-.172.67.463a2.593,2.593,0,0,1-1.306,1.653s-.286.112-.6-.278a.692.692,0,0,1-.975-.485s-.87-.119-.669-.805a.6.6,0,0,1-.387-1.013" transform="translate(-414.858 -281.757)" fill="#c99a7d"/>
          <path id="Path_113" data-name="Path 113" d="M733.316,299.892a51.276,51.276,0,0,0,3.075-4.129,41.574,41.574,0,0,0,2.9-8.134c.373-1.943,5.241-14.81,5.241-14.81l3.351.34s-3.962,13.047-4.334,14.121c-.548,1.584-2.106,7.434-2.521,8.761-.335,1.066-1.365,3.692-1.737,5.236-.337,1.391-1.47,4.832-1.47,4.832Z" transform="translate(-477.2 -177.535)" fill="#e6d8d1"/>
          <path id="Path_114" data-name="Path 114" d="M724.792,449.73s-2.034,2.49-16.742,2.49c0,0-8.788-17.517-5.629-22.589,2.778-4.46,16.9-1.434,16.9-1.434s3.223,5.12,5.469,21.534" transform="translate(-456.65 -277.993)" fill="#7380d6"/>
          <path id="Path_115" data-name="Path 115" d="M703.894,347.913a24.018,24.018,0,0,0,3.206.832c.805.056,4.364,3.621,5.084,5s.467,3.614-.3,6.3.375,3.4.2,6.01,1.616,9.59,1.892,10.992-14.574,5.4-17.828,3.206c0,0,1.884-8.244,2.179-8.92a10.641,10.641,0,0,0-.766-6.791c-.47-.828-2.857-5.808-2.857-5.808s-2.608-5.973-1.078-7.511c1.329-1.338,5.3-2.265,5.989-2.61a12.447,12.447,0,0,1,4.283-.7" transform="translate(-451.056 -226.401)" fill="#e6d8d1"/>
          <path id="Path_116" data-name="Path 116" d="M701.53,302.862c1.153-.857,5.561-3.453,8.569,2.28s.995,11.1-2.447,10.91-6.655-3.8-7.833-6.954a5.016,5.016,0,0,1,1.711-6.236" transform="translate(-455.12 -196.218)" fill="#dba585"/>
          <path id="Path_117" data-name="Path 117" d="M709.033,304.245s-1.384-5.276-6.613-3.849-5.3,6.117-3.91,9.088a7.959,7.959,0,0,0,4.038,3.944s-.966-2.454-.166-3.417,4.421-3.515,5.235-7.085a4.854,4.854,0,0,1,1.415,1.318" transform="translate(-454.053 -195.321)" fill="#2c323d"/>
          <path id="Path_118" data-name="Path 118" d="M697.638,308.215a3.648,3.648,0,1,1-3.547-4.195,3.9,3.9,0,0,1,3.547,4.195" transform="translate(-449.278 -197.839)" fill="#2c323d"/>
          <path id="Path_119" data-name="Path 119" d="M715.735,335.418a54.433,54.433,0,0,0,.354,5.546s-2.047,2.659-5.379-2.1a7.065,7.065,0,0,0-.364-5.007c-1.216-2.757,5.389,1.563,5.389,1.563" transform="translate(-462.156 -216.656)" fill="#dba585"/>
          <path id="Path_120" data-name="Path 120" d="M722.059,355.922l.277,2.153L719.37,356.4Z" transform="translate(-468.125 -231.614)" fill="#dba585"/>
          <path id="Path_121" data-name="Path 121" d="M708.858,324.234a.835.835,0,0,0-1.285.028c-.278.385-.235,1.267.668,2.148s3.16.988.617-2.176" transform="translate(-460.35 -210.805)" fill="#dba585"/>
          <path id="Path_122" data-name="Path 122" d="M717.516,340.395l.022.827s-1.815.6-4.644-2.06a5.348,5.348,0,0,0,4.622,1.233" transform="translate(-463.911 -220.707)" fill="#997761"/>
          <path id="Path_123" data-name="Path 123" d="M711.621,346.469a8.561,8.561,0,0,0,4.863-.227l.361,1.188.629,4.878s-3.622-1.243-4.934-2.921c-.1-.131-1.3-1.8-1.3-1.8Z" transform="translate(-462.832 -225.315)" fill="#e6d8d1"/>
          <path id="Path_124" data-name="Path 124" d="M666.5,353.492a6.735,6.735,0,0,0-3.146,1.783,13.836,13.836,0,0,0-2.264,4.156c-.339.74-4.532,7.942-4.778,8.1s-2.236,2.775-3.836,4.977c-1.719,2.366-4.68,6.392-4.68,6.392l2.657,2.114s6.612-7.785,8.245-9.956c1.744-2.319,7.961-9.128,7.961-9.128s4.928-6.574-.161-8.434" transform="translate(-421.551 -230.032)" fill="#e6d8d1"/>
          <path id="Path_125" data-name="Path 125" d="M750.137,578.69c-2.968-2.592-2.174-5.253-2.174-5.253a4.4,4.4,0,0,0-2.15-.181c-.964.241-1.48,2.539-1.095,3.274l.3,3.767h.49l-.16-2.048c.571,1.945,1.117,4.387,2.433,4.772,1.765.516,4.575.21,4.9-.39s-2.541-3.94-2.541-3.94" transform="translate(-484.537 -372.994)" fill="#2c3d54"/>
          <path id="Path_126" data-name="Path 126" d="M749.831,573.071a24.3,24.3,0,0,0,.758,2.813c.42,1.158,2.39,3.712,2.334,4.045s-2.235.8-3.2.034-1.852-3.151-2.052-4.619a21.458,21.458,0,0,1-.21-2.359,1.833,1.833,0,0,1,2.37.087" transform="translate(-486.405 -372.601)" fill="#dba585"/>
          <path id="Path_127" data-name="Path 127" d="M661.328,500.688a8.423,8.423,0,0,0-2.537-.247c-.715.18-4.811.318-5.445.924s-1.727,1.935-2.065,1.779-1.806-1.157-.427-3.181,1.792-2.521,2.626-2.657,3.594-1.035,3.956-1.566l-2.531-1.724.362-.531s3.483,1.631,4.366,1.639,2.818,1.956,3.022,3.615a1.687,1.687,0,0,1-1.328,1.949" transform="translate(-423.161 -321.132)" fill="#dba585"/>
          <path id="Path_128" data-name="Path 128" d="M653.095,501.365s1.281-2.426,2.677-2.845,4.043-.307,5.422-2.154c0,0-.379-1.288-3.13-1.6a30.084,30.084,0,0,1-3.048-1.287l-.362.531,2.531,1.724a13.1,13.1,0,0,1-4.539,1.55s-3.342,3.383-2.67,4.953a1.938,1.938,0,0,0,1.017,1.062c.708.241,2.1-1.94,2.1-1.94" transform="translate(-422.91 -321.131)" fill="#2f4159"/>
          <rect id="Rectangle_18" data-name="Rectangle 18" width="9.642" height="4.445" transform="translate(274.83 98.469) rotate(-65.685)" fill="#c75454"/>
          <path id="Path_129" data-name="Path 129" d="M733.3,223.626q-.268-.138-.546-.264l-5.911,13.084c.186.082.373.16.56.233a4.205,4.205,0,0,0,8.37.519,7.158,7.158,0,0,0,1.517-.723,5.858,5.858,0,0,1,3.368-.6l6.64,3c-.44,1.621-.1,3.126.908,3.6l3.2-7.077c-1.023-.437-2.379.3-3.305,1.7l-6.639-3a5.867,5.867,0,0,1-1.779-2.922,7.112,7.112,0,0,0-.459-1.616,4.205,4.205,0,0,0-5.921-5.939m1.05,14.232a3.008,3.008,0,0,1-5.71-.748,12.633,12.633,0,0,0,5.834.426,3.138,3.138,0,0,1-.124.322m4.426-9.8a2.94,2.94,0,0,1-.16.306,12.628,12.628,0,0,0-4.176-4.1,3.009,3.009,0,0,1,4.336,3.791" transform="translate(-472.985 -144.866)" fill="#f1ce6f"/>
          <path id="Path_130" data-name="Path 130" d="M739.675,244.131a7.121,7.121,0,0,0-.46-1.617c-2.764,5.453-11.136,4.132-11.136,4.132l-1.242,2.748c.186.082.373.16.56.233a4.205,4.205,0,0,0,8.37.519,7.163,7.163,0,0,0,1.516-.723,5.859,5.859,0,0,1,3.368-.6l6.64,3c-.44,1.621-.1,3.126.908,3.6l3.2-7.076c-1.023-.437-2.379.3-3.305,1.7l-6.639-3a5.865,5.865,0,0,1-1.778-2.922m-5.331,6.676a3.008,3.008,0,0,1-5.71-.748,12.633,12.633,0,0,0,5.834.426,3.149,3.149,0,0,1-.124.322" transform="translate(-472.985 -157.814)" fill="#dab659"/>
          <path id="Path_131" data-name="Path 131" d="M770.644,256.479s-.681,1.59-.408,2.118.552-.034.552-.034-.284.549.133.828.708-.394.708-.394a.5.5,0,0,0,.405.6c.507.12.62-.494.62-.494s.23.756.733.355a2.594,2.594,0,0,0,.8-1.95s-.043-.306-.538-.388a.693.693,0,0,0-.9-.611s-.532-.7-1.031-.186a.6.6,0,0,0-1.072.159" transform="translate(-501.183 -166.62)" fill="#c99a7d"/>
          <path id="Path_132" data-name="Path 132" d="M752.7,50.446l-6.6,2.975.79,7.2-4.868-5.357-6.6,2.976,3.589-6.286-4.869-5.357,7.087,1.472,3.589-6.286.791,7.2Z" transform="translate(-477.74 -27.187)" fill="#e39f4e"/>
          <path id="Path_133" data-name="Path 133" d="M708.072,128.461l-4.806-1.863-3.257,4,.286-5.147-4.807-1.863,4.985-1.317.287-5.148,2.793,4.333,4.984-1.317-3.258,3.994Z" transform="translate(-452.585 -76.213)" fill="#e39f4e"/>
          <path id="Path_134" data-name="Path 134" d="M810.065,138.659l-6.121-.273-2.151,5.737-1.632-5.907-6.122-.273,5.112-3.377-1.632-5.907,4.792,3.819,5.113-3.378-2.152,5.739Z" transform="translate(-516.715 -83.725)" fill="#e39f4e"/>
          <path id="Path_135" data-name="Path 135" d="M614.094,69.552l-7.075.5-1.71,6.883-2.663-6.574-7.076.5L601,66.3l-2.663-6.574,6.019,3.752,5.43-4.564-1.71,6.884Z" transform="translate(-387.563 -38.339)" fill="#e39f4e"/>
          <path id="Path_136" data-name="Path 136" d="M639.1,173.414l-4.082-.158-1.411,3.833-1.112-3.93L628.412,173l3.4-2.273L630.7,166.8l3.21,2.527,3.394-2.272-1.411,3.834Z" transform="translate(-408.935 -108.543)" fill="#e39f4e"/>
          <path id="Path_137" data-name="Path 137" d="M717.071,5.208l-3.558.53-.6,3.546-1.6-3.219-3.557.529,2.567-2.519-1.6-3.22,3.189,1.662L714.478,0l-.6,3.546Z" transform="translate(-460.568 0)" fill="#e39f4e"/>
        </g>
      </g>
    </g>
  </g>
</svg>
