<svg xmlns="http://www.w3.org/2000/svg" width="30.897" height="30.897" viewBox="0 0 30.897 30.897">
  <g id="date" transform="translate(-2 -2)">
    <path id="Path_229" data-name="Path 229" d="M6.136,0a6.3,6.3,0,0,1,6.136,6.448c0,3.561-2.747,5.389-6.136,5.389S0,10.01,0,6.448A6.3,6.3,0,0,1,6.136,0Z" transform="translate(20 20.119)" fill="#ca2f30"/>
    <path id="Path_217" data-name="Path 217" d="M30.322,5.09H27.747V4.06a2.06,2.06,0,0,0-4.12,0V5.09h-4.12V4.06a2.06,2.06,0,0,0-4.12,0V5.09h-4.12V4.06a2.06,2.06,0,1,0-4.12,0V5.09H4.575A2.575,2.575,0,0,0,2,7.664v20.6a2.575,2.575,0,0,0,2.575,2.575H18.993a.515.515,0,0,0,0-1.03H4.575A1.549,1.549,0,0,1,3.03,28.262V12.3H31.867v8.754a.515.515,0,0,0,1.03,0V7.664A2.575,2.575,0,0,0,30.322,5.09ZM24.658,4.06a1.03,1.03,0,0,1,2.06,0v3.09a1.03,1.03,0,0,1-2.06,0Zm-8.239,0a1.03,1.03,0,0,1,2.06,0v3.09a1.03,1.03,0,0,1-2.06,0Zm-8.239,0a1.03,1.03,0,1,1,2.06,0v3.09a1.03,1.03,0,1,1-2.06,0Zm23.688,7.209H3.03v-3.6A1.549,1.549,0,0,1,4.575,6.12H7.149v1.03a2.06,2.06,0,1,0,4.12,0V6.12h4.12v1.03a2.06,2.06,0,1,0,4.12,0V6.12h4.12v1.03a2.06,2.06,0,0,0,4.12,0V6.12h2.575a1.549,1.549,0,0,1,1.545,1.545Z" transform="translate(0)" fill="#dedede"/>
    <path id="Path_218" data-name="Path 218" d="M26.12,28.03A1.03,1.03,0,0,0,25.09,27H23.03A1.03,1.03,0,0,0,22,28.03v1.545a1.03,1.03,0,0,0,1.03,1.03h2.06a1.03,1.03,0,0,0,1.03-1.03Zm-3.09,1.545V28.03h2.06v1.545Z" transform="translate(-9.701 -12.126)" fill="#dedede"/>
    <path id="Path_219" data-name="Path 219" d="M14.12,28.03A1.03,1.03,0,0,0,13.09,27H11.03A1.03,1.03,0,0,0,10,28.03v1.545a1.03,1.03,0,0,0,1.03,1.03h2.06a1.03,1.03,0,0,0,1.03-1.03Zm-3.09,1.545V28.03h2.06v1.545Z" transform="translate(-3.88 -12.126)" fill="#dedede"/>
    <path id="Path_220" data-name="Path 220" d="M49.09,30.6a1.03,1.03,0,0,0,1.03-1.03V28.03A1.03,1.03,0,0,0,49.09,27H47.03A1.03,1.03,0,0,0,46,28.03v1.545a1.03,1.03,0,0,0,1.03,1.03ZM47.03,28.03h2.06v1.545H47.03Z" transform="translate(-21.342 -12.126)" fill="#dedede"/>
    <path id="Path_221" data-name="Path 221" d="M26.12,37.03A1.03,1.03,0,0,0,25.09,36H23.03A1.03,1.03,0,0,0,22,37.03v1.545a1.03,1.03,0,0,0,1.03,1.03h2.06a1.03,1.03,0,0,0,1.03-1.03Zm-3.09,1.545V37.03h2.06v1.545Z" transform="translate(-9.701 -16.492)" fill="#dedede"/>
    <path id="Path_222" data-name="Path 222" d="M14.12,37.03A1.03,1.03,0,0,0,13.09,36H11.03A1.03,1.03,0,0,0,10,37.03v1.545a1.03,1.03,0,0,0,1.03,1.03h2.06a1.03,1.03,0,0,0,1.03-1.03Zm-3.09,1.545V37.03h2.06v1.545Z" transform="translate(-3.88 -16.492)" fill="#dedede"/>
    <path id="Path_223" data-name="Path 223" d="M25.09,45H23.03A1.03,1.03,0,0,0,22,46.03v1.545a1.03,1.03,0,0,0,1.03,1.03h2.06a1.03,1.03,0,0,0,1.03-1.03V46.03A1.03,1.03,0,0,0,25.09,45Zm-2.06,2.575V46.03h2.06v1.545Z" transform="translate(-9.701 -20.857)" fill="#dedede"/>
    <path id="Path_224" data-name="Path 224" d="M35.03,30.6h2.06a1.03,1.03,0,0,0,1.03-1.03V28.03A1.03,1.03,0,0,0,37.09,27H35.03A1.03,1.03,0,0,0,34,28.03v1.545A1.03,1.03,0,0,0,35.03,30.6Zm0-2.575h2.06v1.545H35.03Z" transform="translate(-15.522 -12.126)" fill="#dedede"/>
    <path id="Path_225" data-name="Path 225" d="M34,38.575a1.03,1.03,0,0,0,1.03,1.03.515.515,0,0,0,0-1.03V37.03h2.06a.515.515,0,0,0,0-1.03H35.03A1.03,1.03,0,0,0,34,37.03Z" transform="translate(-15.522 -16.492)" fill="#dedede"/>
    <path id="Path_226" data-name="Path 226" d="M13.09,45H11.03A1.03,1.03,0,0,0,10,46.03v1.545a1.03,1.03,0,0,0,1.03,1.03h2.06a1.03,1.03,0,0,0,1.03-1.03V46.03A1.03,1.03,0,0,0,13.09,45Zm-2.06,2.575V46.03h2.06v1.545Z" transform="translate(-3.88 -20.857)" fill="#dedede"/>
    <path id="Path_227" data-name="Path 227" d="M42.694,36a6.694,6.694,0,1,0,6.694,6.694A6.694,6.694,0,0,0,42.694,36Zm0,12.359a5.664,5.664,0,1,1,5.664-5.664A5.664,5.664,0,0,1,42.694,48.359Z" transform="translate(-16.492 -16.492)" fill="#dedede"/>
    <path id="Path_228" data-name="Path 228" d="M48.463,44.666l-4.005,4.005-1.82-1.821a.515.515,0,1,0-.728.728l2.184,2.185a.515.515,0,0,0,.728,0l4.369-4.369a.515.515,0,1,0-.728-.728Z" transform="translate(-19.285 -20.622)" fill="#dedede"/>
  </g>
</svg>
