<svg xmlns="http://www.w3.org/2000/svg" width="32.975" height="33.134" viewBox="0 0 32.975 33.134">
  <g id="Eligibility" transform="translate(-1709 -1496)">
    <circle id="Ellipse_1" data-name="Ellipse 1" cx="4.5" cy="4.5" r="4.5" transform="translate(1730.717 1517.567)" fill="#ca2f30"/>
    <g id="employee" transform="translate(1709 1496)">
      <path id="Path_198" data-name="Path 198" d="M32.943,25.564a.489.489,0,0,0-.974.093,5.914,5.914,0,1,1-.443-1.743.489.489,0,0,0,.9-.383,6.9,6.9,0,0,0-12.6-.2,8.984,8.984,0,0,0-2.361-1.246L15.755,20.3a7.69,7.69,0,0,0,2.754-3.812,2.946,2.946,0,0,0,.149-5.744V9.408h.463a.851.851,0,0,0,.85-.85V3.415a2.435,2.435,0,0,0-1.184-2.088V.847A.927.927,0,0,0,17.78,0H7.419a5.342,5.342,0,0,0-3.01.865A2.8,2.8,0,0,0,3.065,3.15v5.3A1.512,1.512,0,0,0,4.648,9.785v1.039a2.945,2.945,0,0,0,.132,5.6,5.26,5.26,0,0,0,.352.984.489.489,0,1,0,.885-.417c-.6-1.279-.314-1.66-.391-5.354V9.789a15.292,15.292,0,0,0,9.058-2.706,2.437,2.437,0,0,0,2.432,2.325h.564c0,6.493.071,6.3-.2,7.1a7.243,7.243,0,0,1-2.567,3.205h0a10.5,10.5,0,0,1-1.519.959,4.06,4.06,0,0,1-1.742.573c-.964,0-3.2-1.179-4.618-2.766a.489.489,0,1,0-.728.653A10.405,10.405,0,0,0,7.7,20.417L6.093,22.093A9.145,9.145,0,0,0,0,30.7a2.382,2.382,0,0,0,2.38,2.38H21.186a2.371,2.371,0,0,0,1.715-.732,6.9,6.9,0,0,0,10.042-6.787ZM4.648,15.3a1.966,1.966,0,0,1,0-3.405ZM19.9,13.6a1.97,1.97,0,0,1-1.242,1.829c0-.041,0,.161,0-3.657A1.969,1.969,0,0,1,19.9,13.6ZM6,8.811c-1.283,0-1.251,0-1.349-.007-.379-.04-.605-.239-.605-.354v-5.3C4.043,1.972,5.589.978,7.419.978c10.852,0,10.355,0,10.391,0V1.5c0,2.3-4.992,7.36-11.812,7.31ZM17.116,8.43A1.457,1.457,0,0,1,15.66,6.974v-.63a9.283,9.283,0,0,0,2.969-3.891,1.449,1.449,0,0,1,.365.963V8.43ZM15.076,21.006c.012.012,1.635,1.713,1.642,1.713-.014.042-1.43,4.5-1.449,4.566a.376.376,0,0,1-.481.066l-2.5-1.618,2.786-4.728Zm-2.122,6.323v1.056a.218.218,0,0,1-.214.214H10.825a.217.217,0,0,1-.214-.214V27.329l1.171-.758Zm.585-5.642c-.4.677-.427.722-1.757,2.981-1.376-2.336-1.329-2.255-1.666-2.826A3.44,3.44,0,0,0,13.539,21.687Zm-5.05-.681L9.4,22.553h0v0h0l1.872,3.176c-2.754,1.783-2.6,1.715-2.8,1.664a.319.319,0,0,1-.179-.112L6.847,22.719l1.642-1.713Zm.783,11.1H5.612V28.88a.489.489,0,0,0-.978,0V32.1H2.38a1.4,1.4,0,0,1-1.4-1.4A8.163,8.163,0,0,1,5.97,23.19c1.5,4.712,1.4,4.452,1.45,4.537a1.341,1.341,0,0,0,1.889.447l.324-.21a1.493,1.493,0,0,0,.492,1.387Zm1.023,0,.783-2.527H12.53l.809,2.527Zm10.89,0H18.93V28.88a.489.489,0,0,0-.978,0V32.1H14.366l-.89-2.782a1.189,1.189,0,0,0,.456-.937v-.423l.324.21a1.329,1.329,0,0,0,1.927-.533L17.6,23.183a8.016,8.016,0,0,1,1.866,1.1,6.892,6.892,0,0,0,2.574,7.531,1.4,1.4,0,0,1-.852.289Zm0,0" transform="translate(0 0)" fill="#dedede"/>
      <path id="Path_199" data-name="Path 199" d="M333.391,338.595a4.957,4.957,0,1,0-2.095.319.489.489,0,0,0,.034-.977,3.952,3.952,0,1,1,1.709-.255.489.489,0,0,0,.351.913Zm0,0" transform="translate(-305.532 -307.755)" fill="#dedede"/>
      <path id="Path_200" data-name="Path 200" d="M361.475,366.016a.489.489,0,0,0-.673.159l-2.487,4.033-.875-1.2a.489.489,0,1,0-.789.578l1.3,1.782a.489.489,0,0,0,.811-.032l2.87-4.652A.489.489,0,0,0,361.475,366.016Zm0,0" transform="translate(-333.481 -342.261)" fill="#dedede"/>
      <path id="Path_201" data-name="Path 201" d="M221.734,199.233a.772.772,0,1,0,.772-.772A.772.772,0,0,0,221.734,199.233Zm0,0" transform="translate(-207.384 -185.618)" fill="#dedede"/>
      <path id="Path_202" data-name="Path 202" d="M212.8,162.227a.489.489,0,0,0,.521-.828,4.546,4.546,0,0,0-2.9-.292.489.489,0,0,0,.2.957,4.635,4.635,0,0,1,1.717-.017A1.482,1.482,0,0,1,212.8,162.227Zm0,0" transform="translate(-196.44 -150.574)" fill="#dedede"/>
      <path id="Path_203" data-name="Path 203" d="M119.311,198.461a.781.781,0,1,0,.036,0Zm0,0" transform="translate(-110.868 -185.617)" fill="#dedede"/>
      <path id="Path_204" data-name="Path 204" d="M102.87,161.107a4.547,4.547,0,0,0-2.9.292.49.49,0,0,0,.261.9c.26,0,.247-.146.723-.256a4.641,4.641,0,0,1,1.716.017.489.489,0,0,0,.2-.957Zm0,0" transform="translate(-93.287 -150.574)" fill="#dedede"/>
      <path id="Path_205" data-name="Path 205" d="M154.5,250.543a1,1,0,0,1-1.992,0,.49.49,0,0,0-.489-.489c-1.03,0-.394,2.463,1.485,2.463a1.932,1.932,0,0,0,1.932-2.173A.49.49,0,0,0,154.5,250.543Zm0,0" transform="translate(-141.725 -233.872)" fill="#dedede"/>
    </g>
  </g>
</svg>
