<svg xmlns="http://www.w3.org/2000/svg" width="34.172" height="28.846" viewBox="0 0 34.172 28.846">
  <g id="Premier" transform="translate(0 -4.974)">
    <path id="Path_249" data-name="Path 249" d="M1949.5,2027.22l2.733,1.078h2.044l2.726.753h2.629l2.921.513,2.824-1.266,3.5-.492.854,1.489,1.611,1.1-.561,1.367-2.486.757-2.445.659-3.3.477h-5.55a5.684,5.684,0,0,0-2.726,0c-1.266.39-6.022-1.893-6.022-1.893l-.415-1.635,1.27-.561Z" transform="translate(-1942.407 -2014.468)" fill="#ca2f30"/>
    <path id="Path_248" data-name="Path 248" d="M33.638,15.667a.534.534,0,0,0,.534-.534v-2.67a.534.534,0,0,0-.534-.534h-1.6V9.779a2.67,2.67,0,1,0-3.2,0v2.15h-1.6a.534.534,0,0,0-.534.534v.214a30.621,30.621,0,0,1-19.222,0v-.214a.534.534,0,0,0-.534-.534h-1.6V9.779a2.67,2.67,0,1,0-3.2,0v2.15H.534A.534.534,0,0,0,0,12.463v2.67a.534.534,0,0,0,.534.534H1.6V30.083H.534A.534.534,0,0,0,0,30.617v2.67a.534.534,0,0,0,.534.534h33.1a.534.534,0,0,0,.534-.534v-2.67a.534.534,0,0,0-.534-.534H32.57V15.667Zm-3.2-9.611a1.6,1.6,0,1,1-1.6,1.6A1.6,1.6,0,0,1,30.434,6.056ZM29.9,10.274a2.67,2.67,0,0,0,1.068,0v1.655H29.9ZM27.764,13H33.1v1.6H27.764Zm-.534,17.086a.534.534,0,0,0-.534.534v2.136H7.475V30.617a.534.534,0,0,0-.534-.534H6.354l5.139-7.475H22.678l5.14,7.475ZM28.3,28.9l-4.9-7.126a.534.534,0,0,0-.44-.232H11.213a.534.534,0,0,0-.44.232L5.873,28.9V18.043a31.473,31.473,0,0,0,11.213,2.082A31.473,31.473,0,0,0,28.3,18.043ZM17.086,15.3a31.6,31.6,0,0,0,9.6-1.5l.007,1.33a.534.534,0,0,0,.534.534H28.3V16.9a30.3,30.3,0,0,1-22.425,0V15.667H6.941a.534.534,0,0,0,.534-.534V13.8a31.609,31.609,0,0,0,9.611,1.5ZM3.738,6.056a1.6,1.6,0,1,1-1.6,1.6,1.6,1.6,0,0,1,1.6-1.6ZM3.2,10.274a2.67,2.67,0,0,0,1.068,0v1.655H3.2ZM1.068,13H6.407v1.6H1.068Zm1.6,2.67H4.805V30.083H2.67Zm-1.6,15.484H6.407v1.6H1.068Zm32.036,1.6H27.764v-1.6H33.1Zm-1.6-2.67H29.366V15.667H31.5Z" transform="translate(0 0)" fill="#dedede"/>
  </g>
</svg>
