<svg xmlns="http://www.w3.org/2000/svg" width="32.15" height="32.15" viewBox="0 0 32.15 32.15">
  <g id="Selection-team" transform="translate(-1 -1)">
    <path id="Path_216" data-name="Path 216" d="M5,0a5,5,0,0,1,5,5c0,2.761-2.239,4.179-5,4.179S0,7.761,0,5A5,5,0,0,1,5,0Z" transform="translate(12.075 2.075)" fill="#ca2f30"/>
    <circle id="Ellipse_2" data-name="Ellipse 2" cx="1" cy="1" r="1" transform="translate(4.075 26.075)" fill="#ca2f30"/>
    <rect id="Rectangle_51" data-name="Rectangle 51" width="10" height="2" transform="translate(14.075 30.075)" fill="#ca2f30"/>
    <circle id="Ellipse_3" data-name="Ellipse 3" cx="1" cy="1" r="1" transform="translate(7.075 19.075)" fill="#ca2f30"/>
    <circle id="Ellipse_4" data-name="Ellipse 4" cx="1" cy="1" r="1" transform="translate(26.075 26.075)" fill="#ca2f30"/>
    <circle id="Ellipse_5" data-name="Ellipse 5" cx="1" cy="1" r="1" transform="translate(29.075 19.075)" fill="#ca2f30"/>
    <path id="Path_211" data-name="Path 211" d="M7.074,42.837V36H6.037v6.837a1.556,1.556,0,1,0,1.037,0Zm-.519,1.979a.519.519,0,1,1,.519-.519A.519.519,0,0,1,6.556,44.815Z" transform="translate(-1.926 -16.851)" fill="#dedede"/>
    <path id="Path_212" data-name="Path 212" d="M12.556,36a1.552,1.552,0,0,0-.519,3.016v6.837h1.037V39.016A1.552,1.552,0,0,0,12.556,36Zm0,2.074a.519.519,0,1,1,.519-.519A.519.519,0,0,1,12.556,38.074Z" transform="translate(-4.814 -16.851)" fill="#dedede"/>
    <path id="Path_213" data-name="Path 213" d="M51.074,42.837V36H50.037v6.837a1.556,1.556,0,1,0,1.037,0Zm-.519,1.979a.519.519,0,1,1,.519-.519A.519.519,0,0,1,50.556,44.815Z" transform="translate(-23.109 -16.851)" fill="#dedede"/>
    <path id="Path_214" data-name="Path 214" d="M56.556,36a1.552,1.552,0,0,0-.519,3.016v6.837h1.037V39.016A1.552,1.552,0,0,0,56.556,36Zm0,2.074a.519.519,0,1,1,.519-.519A.519.519,0,0,1,56.556,38.074Z" transform="translate(-25.998 -16.851)" fill="#dedede"/>
    <path id="Path_215" data-name="Path 215" d="M23.3,17.594a1.547,1.547,0,0,0-.579.114,1.542,1.542,0,0,0-2.533-.747,1.508,1.508,0,0,0-1.556-.309V12.19a5.723,5.723,0,0,0,4.081-4.646L24.9,8.75a5.091,5.091,0,1,0,1.054-.6L22.763,6.388a5.7,5.7,0,0,0-11.376,0L8.192,8.146a5.244,5.244,0,1,0,1.053.6l2.193-1.206A5.72,5.72,0,0,0,15.52,12.19v9.559a1.555,1.555,0,0,1-.159.684l-.435-2.175a3.352,3.352,0,0,0-3.277-2.687,1.314,1.314,0,0,0-1.094,2.044l.534.8a2.313,2.313,0,0,1,.369.993l.359,2.869a3.522,3.522,0,0,0,.434,1.321l1.713,3.523v.918H12.927V33.15H24.335V30.039H23.3v-.864l.83-1.106a3.65,3.65,0,0,0,.726-2.178V19.149A1.558,1.558,0,0,0,23.3,17.594Zm4.667-.519a4.122,4.122,0,0,1-2.485-.834,3.11,3.11,0,0,1,4.97,0A4.122,4.122,0,0,1,27.965,17.075Zm-1.556-4.667a1.556,1.556,0,1,1,1.556,1.556A1.558,1.558,0,0,1,26.409,12.408Zm1.556-3.63A4.144,4.144,0,0,1,31.2,15.522a4.147,4.147,0,0,0-1.52-1.181,2.593,2.593,0,1,0-3.423,0,4.152,4.152,0,0,0-1.52,1.181,4.144,4.144,0,0,1,3.232-6.743Zm-21.779,8.3A4.122,4.122,0,0,1,3.7,16.241a3.11,3.11,0,0,1,4.97,0A4.122,4.122,0,0,1,6.186,17.075ZM4.63,12.408a1.556,1.556,0,1,1,1.556,1.556A1.558,1.558,0,0,1,4.63,12.408Zm5.7.519a4.124,4.124,0,0,1-.917,2.595A4.147,4.147,0,0,0,7.9,14.34a2.593,2.593,0,1,0-3.423,0,4.152,4.152,0,0,0-1.52,1.181,4.147,4.147,0,1,1,7.38-2.595ZM12.408,6.7a4.667,4.667,0,1,1,8.379,2.817,4.13,4.13,0,0,0-1.993-1.927,2.593,2.593,0,1,0-3.437,0,4.13,4.13,0,0,0-1.994,1.928A4.655,4.655,0,0,1,12.408,6.7Zm6.223-1.037a1.556,1.556,0,1,1-1.556-1.556A1.558,1.558,0,0,1,18.631,5.667Zm-4.479,4.669a3.1,3.1,0,0,1,5.847,0,4.626,4.626,0,0,1-1.555.831,1.542,1.542,0,0,0-2.737,0A4.631,4.631,0,0,1,14.152,10.336ZM23.3,32.113H13.964V31.076H23.3Zm.519-6.223a2.607,2.607,0,0,1-.519,1.556l-1.037,1.383v1.21H15V28.883l-1.834-3.768a2.561,2.561,0,0,1-.322-.964l-.359-2.87a3.349,3.349,0,0,0-.535-1.439l-.534-.8a.277.277,0,0,1,.231-.431,2.312,2.312,0,0,1,2.26,1.853l.667,3.333H15.84l.443-.886a2.607,2.607,0,0,0,.274-1.159V11.89a.519.519,0,0,1,1.037,0v8.3h1.037V18.112a.519.519,0,1,1,1.037,0v2.074h1.037V18.112a.519.519,0,1,1,1.037,0v2.074h1.037V19.149a.519.519,0,0,1,1.037,0Z" transform="translate(0 0)" fill="#dedede"/>
  </g>
</svg>
