<svg xmlns="http://www.w3.org/2000/svg" width="30.348" height="30.348" viewBox="0 0 30.348 30.348">
  <g id="Selection_Procedure" data-name="Selection Procedure" transform="translate(-1 -1)">
    <path id="Path_209" data-name="Path 209" d="M1972.073,1783.826l-1.524,3.029h-1.993l1.993,2.287-1.172,3.487,2.7-2.687,2.931,2.687-.821-3.487,1.993-2.287h-3.107Z" transform="translate(-1945.597 -1772.636)" fill="#ca2f30"/>
    <path id="Path_210" data-name="Path 210" d="M1972.428,1783.826l-1.678,3.137h-2.195l2.195,2.368-1.291,3.612,2.969-2.783,3.227,2.783-.9-3.612,2.194-2.368h-3.421Z" transform="translate(-1947.597 -1782.303)" fill="#ca2f30"/>
    <path id="Path_206" data-name="Path 206" d="M19.277,18.585A9.756,9.756,0,0,0,16.661,5.9a4.784,4.784,0,0,0-2.4-4.109A5.989,5.989,0,0,0,11.289,1h-1a5.989,5.989,0,0,0-2.968.789A4.784,4.784,0,0,0,4.918,5.9,9.782,9.782,0,0,0,7.481,22.936L6.59,24.5H2.468A1.468,1.468,0,0,0,1,25.964V29.88a1.468,1.468,0,0,0,1.468,1.468H15.2a1.468,1.468,0,0,0,1.468-1.468V25.964A1.468,1.468,0,0,0,15.2,24.5H11.074l-.564-.988c.093,0,.187.009.28.009a9.712,9.712,0,0,0,4.858-1.3L24.03,30.6a2.566,2.566,0,1,0,3.63-3.629ZM7.808,2.638a5.013,5.013,0,0,1,2.483-.659h1a5.013,5.013,0,0,1,2.483.659A3.779,3.779,0,0,1,15.2,7.784V7.274a3.411,3.411,0,0,0-.576-1.9l-.486-.729a.489.489,0,0,0-.7-.12l-.652.489a4.431,4.431,0,0,1-2.643.881H8.832a2.451,2.451,0,0,0-2.4,1.967A3.772,3.772,0,0,1,7.808,2.638ZM8.832,13.262v1.517l-.787.131A4.577,4.577,0,0,0,5.5,16.262a5.836,5.836,0,0,1,.914-6.448,4.409,4.409,0,0,0,2.418,3.447Zm.979.351a4.277,4.277,0,0,0,1.958,0v1.3a2.151,2.151,0,0,1-1.958,0Zm.979-.865A3.43,3.43,0,0,1,7.363,9.321V8.342A1.468,1.468,0,0,1,8.832,6.874h1.305A5.421,5.421,0,0,0,13.368,5.8l.238-.179.2.3a2.437,2.437,0,0,1,.412,1.358V9.321a3.43,3.43,0,0,1-3.426,3.426Zm-2.584,3.13,1.028-.171a3.064,3.064,0,0,0,3.113,0l1.028.171a3.6,3.6,0,0,1,2.184,1.266,5.855,5.855,0,0,1-9.536,0,3.6,3.6,0,0,1,2.183-1.266Zm7.873.386a4.577,4.577,0,0,0-2.545-1.352l-.786-.131V13.263a4.409,4.409,0,0,0,2.418-3.447,5.836,5.836,0,0,1,.913,6.449ZM15.2,25.474a.489.489,0,0,1,.489.489V29.88a.489.489,0,0,1-.489.489H2.468a.489.489,0,0,1-.489-.489V25.964a.489.489,0,0,1,.489-.489H6.874A.489.489,0,0,0,7.3,25.23l1.533-2.684,1.533,2.682a.489.489,0,0,0,.425.247ZM9.929,22.491l-.672-1.175a.509.509,0,0,0-.85,0l-.432.755A8.8,8.8,0,0,1,5.05,7.048,4.8,4.8,0,0,0,5.871,8.8l.072.1a6.853,6.853,0,1,0,9.692,0l.072-.1a4.8,4.8,0,0,0,.821-1.752,8.807,8.807,0,0,1-5.738,15.49C10.5,22.537,10.214,22.519,9.929,22.491Zm15.917,7.878a1.575,1.575,0,0,1-1.122-.465L16.489,21.67a9.848,9.848,0,0,0,2.245-2.245l8.234,8.234a1.587,1.587,0,0,1-1.122,2.71Z" transform="translate(0)" fill="#dedede"/>
    <path id="Path_207" data-name="Path 207" d="M42.387,7.039l-.9,3.149a.489.489,0,0,0,.783.511l2.625-2.187L47.518,10.7a.489.489,0,0,0,.783-.51l-.9-3.15,2.244-2.244A.489.489,0,0,0,49.3,3.96H46.666L45.335,1.293a.51.51,0,0,0-.876,0L43.124,3.96H40.49a.489.489,0,0,0-.346.836Zm1.039-2.1a.489.489,0,0,0,.441-.271l1.028-2.061,1.03,2.061a.489.489,0,0,0,.438.271h1.755L46.507,6.551a.489.489,0,0,0-.125.48l.542,1.9L45.211,7.5a.489.489,0,0,0-.627,0L42.868,8.93l.542-1.9a.489.489,0,0,0-.125-.481L41.671,4.939Z" transform="translate(-19.91 -0.023)" fill="#dedede"/>
    <path id="Path_208" data-name="Path 208" d="M52.753,24.262a.489.489,0,0,0-.453-.3H49.666l-1.331-2.666a.51.51,0,0,0-.876,0L46.124,23.96H43.49a.489.489,0,0,0-.346.836l2.244,2.244-.9,3.149a.489.489,0,0,0,.783.511l2.625-2.187L50.518,30.7a.489.489,0,0,0,.783-.51l-.9-3.15,2.244-2.244A.489.489,0,0,0,52.753,24.262Zm-3.246,2.289a.489.489,0,0,0-.125.48l.542,1.9L48.212,27.5a.489.489,0,0,0-.627,0l-1.717,1.43.542-1.9a.489.489,0,0,0-.125-.481l-1.614-1.612h1.755a.489.489,0,0,0,.441-.271l1.028-2.061,1.03,2.061a.489.489,0,0,0,.438.271h1.755Z" transform="translate(-21.442 -10.233)" fill="#dedede"/>
    <rect id="Rectangle_49" data-name="Rectangle 49" width="12" height="1" transform="translate(3.174 28.174)" fill="#dedede"/>
    <rect id="Rectangle_50" data-name="Rectangle 50" width="10" height="1" transform="translate(4.174 26.174)" fill="#dedede"/>
  </g>
</svg>
