<svg xmlns="http://www.w3.org/2000/svg" width="27.267" height="32.275" viewBox="0 0 27.267 32.275">
  <g id="time" transform="translate(0 -10.119)">
    <g id="Ellipse_7" data-name="Ellipse 7" transform="translate(4.56 19.915)" fill="none" stroke="#ca2f30" stroke-width="3">
      <circle cx="9" cy="9" r="9" stroke="none"/>
      <circle cx="9" cy="9" r="10.5" fill="none"/>
    </g>
    <path id="Path_235" data-name="Path 235" d="M18.65,16.118a5.4,5.4,0,0,0,.094-.988,5.113,5.113,0,1,0-10.224.2,5.3,5.3,0,0,0,.094.75A13.559,13.559,0,0,0,0,28.8,13.783,13.783,0,0,0,12.976,42.377c.222.009.443.017.665.017a13.613,13.613,0,0,0,5.01-26.276Zm3.212,21.275a11.843,11.843,0,0,1-8.81,3.28A12.048,12.048,0,0,1,1.7,28.8,11.857,11.857,0,0,1,9.236,17.669a1.693,1.693,0,0,0,1.048-1.9,3.242,3.242,0,0,1-.06-.5,3.453,3.453,0,0,1,2.769-3.485A3.413,3.413,0,0,1,17.04,15.13a4.174,4.174,0,0,1-.06.656,1.672,1.672,0,0,0,1.039,1.883,11.928,11.928,0,0,1,3.843,19.724Z" transform="translate(0 0)" fill="#dedede"/>
    <path id="Path_246" data-name="Path 246" d="M21.475,23.025a.06.06,0,0,0-.051-.051,10.2,10.2,0,0,0-14.4,0,.06.06,0,0,0-.051.051,10.2,10.2,0,0,0,0,14.4.06.06,0,0,0,.051.051,10.2,10.2,0,0,0,14.4,0,.061.061,0,0,0,.051-.051A10.2,10.2,0,0,0,21.475,23.025Zm-.656,12.584-.571-.562a.852.852,0,1,0-1.2,1.2l.562.571A8.477,8.477,0,0,1,15.076,38.7v-.809a.852.852,0,0,0-1.7,0V38.7a8.477,8.477,0,0,1-4.533-1.883l.562-.571a.852.852,0,1,0-1.2-1.2l-.571.562a8.477,8.477,0,0,1-1.883-4.533h.809a.852.852,0,0,0,0-1.7H5.747A8.477,8.477,0,0,1,7.63,24.839L8.2,25.4a.833.833,0,0,0,1.2,0,.852.852,0,0,0,0-1.2l-.562-.571a8.477,8.477,0,0,1,4.533-1.883v.809a.852.852,0,1,0,1.7,0v-.809a8.477,8.477,0,0,1,4.533,1.883l-.562.571a.852.852,0,0,0,0,1.2.833.833,0,0,0,1.2,0l.571-.562A8.477,8.477,0,0,1,22.7,29.372h-.809a.852.852,0,0,0,0,1.7H22.7a8.477,8.477,0,0,1-1.883,4.533Z" transform="translate(-0.592 -1.462)" fill="#dedede"/>
    <path id="Path_247" data-name="Path 247" d="M15.852,31.964h2.556a.852.852,0,1,0,0-1.7H16.7V26.852a.852.852,0,0,0-1.7,0v4.26A.852.852,0,0,0,15.852,31.964Z" transform="translate(-2.22 -2.35)" fill="#dedede"/>
    <circle id="Ellipse_6" data-name="Ellipse 6" cx="1.704" cy="1.704" r="1.704" transform="translate(11.928 13.426)" fill="#dedede"/>
  </g>
</svg>
