<svg xmlns="http://www.w3.org/2000/svg" width="22.478" height="33.849" viewBox="0 0 22.478 33.849">
  <g id="venu" transform="translate(-85.996)">
    <path id="Path_234" data-name="Path 234" d="M3.949,0A4.054,4.054,0,0,1,7.9,4.15c0,2.292-1.768,3.469-3.949,3.469S0,6.442,0,4.15A4.054,4.054,0,0,1,3.949,0Z" transform="translate(93.286 7.726)" fill="#ca2f30"/>
    <g id="Group_93" data-name="Group 93" transform="translate(96.634 2.645)">
      <g id="Group_92" data-name="Group 92" transform="translate(0)">
        <path id="Path_230" data-name="Path 230" d="M247.566,40a.661.661,0,1,0,.656.666A.662.662,0,0,0,247.566,40Z" transform="translate(-246.9 -40.005)" fill="#dedede"/>
      </g>
    </g>
    <g id="Group_95" data-name="Group 95" transform="translate(92.608 6.611)">
      <g id="Group_94" data-name="Group 94" transform="translate(0)">
        <path id="Path_231" data-name="Path 231" d="M190.661,100a4.628,4.628,0,0,0-.069,9.255h.035a4.628,4.628,0,0,0,.034-9.255Zm-.034,7.933H190.6a3.306,3.306,0,0,1,.024-6.611h.025a3.306,3.306,0,0,1-.024,6.611Z" transform="translate(-185.999 -100.002)" fill="#dedede"/>
      </g>
    </g>
    <g id="Group_97" data-name="Group 97" transform="translate(99.238 3.108)">
      <g id="Group_96" data-name="Group 96" transform="translate(0)">
        <path id="Path_232" data-name="Path 232" d="M287.169,47.05a.661.661,0,0,0-.442,1.246,7.264,7.264,0,0,1,4.829,6.9.661.661,0,0,0,.656.666h.005a.661.661,0,0,0,.661-.656A8.587,8.587,0,0,0,287.169,47.05Z" transform="translate(-286.287 -47.011)" fill="#dedede"/>
      </g>
    </g>
    <g id="Group_99" data-name="Group 99" transform="translate(85.996)">
      <g id="Group_98" data-name="Group 98" transform="translate(0)">
        <path id="Path_233" data-name="Path 233" d="M101.292,24.887c4.4-5.66,7.145-8.612,7.182-13.564A11.239,11.239,0,1,0,86,11.155c-.038,5.086,2.761,8.034,7.189,13.731C88.781,25.544,86,27.2,86,29.221c0,1.355,1.253,2.571,3.527,3.424a25.3,25.3,0,0,0,15.423,0c2.274-.853,3.527-2.069,3.527-3.424C108.474,27.2,105.692,25.546,101.292,24.887ZM87.319,11.165a9.917,9.917,0,1,1,19.833.149c-.035,4.7-2.949,7.6-7.6,13.666-.83,1.081-1.592,2.1-2.313,3.1-.719-1-1.466-2-2.309-3.1C90.083,18.66,87.283,15.981,87.319,11.165Zm9.917,21.362c-5.676,0-9.917-1.745-9.917-3.306,0-1.157,2.535-2.619,6.8-3.125.942,1.236,1.768,2.36,2.579,3.507a.661.661,0,0,0,.539.28h0a.661.661,0,0,0,.539-.279c.8-1.132,1.651-2.283,2.586-3.507,4.259.507,6.792,1.968,6.792,3.125C107.152,30.781,102.911,32.526,97.235,32.526Z" transform="translate(-85.996)" fill="#dedede"/>
      </g>
    </g>
  </g>
</svg>
